G04 #@! TF.FileFunction,Soldermask,Bot*
%FSLAX46Y46*%
G04 Gerber Fmt 4.6, Leading zero omitted, Abs format (unit mm)*
G04 Created by KiCad (PCBNEW 4.0.0-rc1-stable) date 28/03/2017 11:06:10*
%MOMM*%
G01*
G04 APERTURE LIST*
%ADD10C,0.076200*%
%ADD11R,2.004800X2.004800*%
%ADD12O,2.004800X2.004800*%
%ADD13C,2.006600*%
G04 APERTURE END LIST*
D10*
D11*
X108204000Y-98806000D03*
D12*
X105664000Y-98806000D03*
X103124000Y-98806000D03*
D13*
X113030000Y-100330000D03*
X113030000Y-102870000D03*
X113030000Y-105410000D03*
X113030000Y-107950000D03*
X113030000Y-110490000D03*
X113030000Y-113030000D03*
X113030000Y-115570000D03*
X113030000Y-118110000D03*
X113030000Y-120650000D03*
X113030000Y-123190000D03*
X113030000Y-125730000D03*
X113030000Y-128270000D03*
X113030000Y-130810000D03*
X97790000Y-130810000D03*
X97790000Y-128270000D03*
X97790000Y-125730000D03*
X97790000Y-123190000D03*
X97790000Y-120650000D03*
X97790000Y-118110000D03*
X97790000Y-115570000D03*
X97790000Y-113030000D03*
X97790000Y-110490000D03*
X97790000Y-107950000D03*
X97790000Y-105410000D03*
X97790000Y-102870000D03*
X97790000Y-100330000D03*
X97790000Y-97790000D03*
X113030000Y-97790000D03*
X110490000Y-130810000D03*
X107950000Y-130810000D03*
X105410000Y-130810000D03*
X102870000Y-130810000D03*
X100330000Y-130810000D03*
D11*
X102362000Y-104140000D03*
D12*
X102362000Y-106680000D03*
X104902000Y-106680000D03*
X102362000Y-109220000D03*
X104902000Y-109220000D03*
X102362000Y-111760000D03*
X104902000Y-111760000D03*
X104902000Y-114300000D03*
X104902000Y-116840000D03*
X102362000Y-119380000D03*
X104902000Y-119380000D03*
X102362000Y-121920000D03*
X104902000Y-121920000D03*
X102362000Y-124460000D03*
X104902000Y-124460000D03*
X102362000Y-127000000D03*
M02*
