G04 #@! TF.FileFunction,Copper,L2,Bot,Signal*
%FSLAX46Y46*%
G04 Gerber Fmt 4.6, Leading zero omitted, Abs format (unit mm)*
G04 Created by KiCad (PCBNEW 4.0.0-rc1-stable) date 28/03/2017 11:06:10*
%MOMM*%
G01*
G04 APERTURE LIST*
%ADD10C,0.076200*%
%ADD11R,1.700000X1.700000*%
%ADD12O,1.700000X1.700000*%
%ADD13C,1.701800*%
%ADD14C,0.685800*%
%ADD15C,0.609600*%
%ADD16C,0.254000*%
G04 APERTURE END LIST*
D10*
D11*
X108204000Y-98806000D03*
D12*
X105664000Y-98806000D03*
X103124000Y-98806000D03*
D13*
X113030000Y-100330000D03*
X113030000Y-102870000D03*
X113030000Y-105410000D03*
X113030000Y-107950000D03*
X113030000Y-110490000D03*
X113030000Y-113030000D03*
X113030000Y-115570000D03*
X113030000Y-118110000D03*
X113030000Y-120650000D03*
X113030000Y-123190000D03*
X113030000Y-125730000D03*
X113030000Y-128270000D03*
X113030000Y-130810000D03*
X97790000Y-130810000D03*
X97790000Y-128270000D03*
X97790000Y-125730000D03*
X97790000Y-123190000D03*
X97790000Y-120650000D03*
X97790000Y-118110000D03*
X97790000Y-115570000D03*
X97790000Y-113030000D03*
X97790000Y-110490000D03*
X97790000Y-107950000D03*
X97790000Y-105410000D03*
X97790000Y-102870000D03*
X97790000Y-100330000D03*
X97790000Y-97790000D03*
X113030000Y-97790000D03*
X110490000Y-130810000D03*
X107950000Y-130810000D03*
X105410000Y-130810000D03*
X102870000Y-130810000D03*
X100330000Y-130810000D03*
D11*
X102362000Y-104140000D03*
D12*
X102362000Y-106680000D03*
X104902000Y-106680000D03*
X102362000Y-109220000D03*
X104902000Y-109220000D03*
X102362000Y-111760000D03*
X104902000Y-111760000D03*
X104902000Y-114300000D03*
X104902000Y-116840000D03*
X102362000Y-119380000D03*
X104902000Y-119380000D03*
X102362000Y-121920000D03*
X104902000Y-121920000D03*
X102362000Y-124460000D03*
X104902000Y-124460000D03*
X102362000Y-127000000D03*
D14*
X108458000Y-107696000D03*
D15*
X100330000Y-112268000D02*
X104902000Y-116840000D01*
X100330000Y-105410000D02*
X100330000Y-112268000D01*
X97790000Y-102870000D02*
X100330000Y-105410000D01*
D16*
X108458000Y-108204000D02*
X104902000Y-111760000D01*
X108458000Y-107696000D02*
X108458000Y-108204000D01*
X97790000Y-128270000D02*
X97790000Y-128016000D01*
X97790000Y-128016000D02*
X96520000Y-126746000D01*
X96520000Y-126746000D02*
X96520000Y-122428000D01*
X96520000Y-122428000D02*
X97028000Y-121920000D01*
X97028000Y-121920000D02*
X102362000Y-121920000D01*
X97790000Y-125730000D02*
X102870000Y-125730000D01*
X103632000Y-123190000D02*
X104902000Y-121920000D01*
X103632000Y-124968000D02*
X103632000Y-123190000D01*
X102870000Y-125730000D02*
X103632000Y-124968000D01*
X97790000Y-115570000D02*
X101600000Y-119380000D01*
X101600000Y-119380000D02*
X102362000Y-119380000D01*
G36*
X115114000Y-132894000D02*
X95706000Y-132894000D01*
X95706000Y-131053965D01*
X96557887Y-131053965D01*
X96745037Y-131506903D01*
X97091274Y-131853745D01*
X97543885Y-132041685D01*
X98033965Y-132042113D01*
X98486903Y-131854963D01*
X98833745Y-131508726D01*
X99021685Y-131056115D01*
X99021686Y-131053965D01*
X99097887Y-131053965D01*
X99285037Y-131506903D01*
X99631274Y-131853745D01*
X100083885Y-132041685D01*
X100573965Y-132042113D01*
X101026903Y-131854963D01*
X101373745Y-131508726D01*
X101561685Y-131056115D01*
X101561686Y-131053965D01*
X101637887Y-131053965D01*
X101825037Y-131506903D01*
X102171274Y-131853745D01*
X102623885Y-132041685D01*
X103113965Y-132042113D01*
X103566903Y-131854963D01*
X103706435Y-131715674D01*
X104683931Y-131715674D01*
X104778250Y-131895593D01*
X105241778Y-132054717D01*
X105730915Y-132024345D01*
X106041750Y-131895593D01*
X106136069Y-131715674D01*
X105410000Y-130989605D01*
X104683931Y-131715674D01*
X103706435Y-131715674D01*
X103913745Y-131508726D01*
X104101685Y-131056115D01*
X104102046Y-130641778D01*
X104165283Y-130641778D01*
X104195655Y-131130915D01*
X104324407Y-131441750D01*
X104504326Y-131536069D01*
X105230395Y-130810000D01*
X105589605Y-130810000D01*
X106315674Y-131536069D01*
X106495593Y-131441750D01*
X106628715Y-131053965D01*
X106717887Y-131053965D01*
X106905037Y-131506903D01*
X107251274Y-131853745D01*
X107703885Y-132041685D01*
X108193965Y-132042113D01*
X108646903Y-131854963D01*
X108993745Y-131508726D01*
X109181685Y-131056115D01*
X109181686Y-131053965D01*
X109257887Y-131053965D01*
X109445037Y-131506903D01*
X109791274Y-131853745D01*
X110243885Y-132041685D01*
X110733965Y-132042113D01*
X111186903Y-131854963D01*
X111533745Y-131508726D01*
X111721685Y-131056115D01*
X111721686Y-131053965D01*
X111797887Y-131053965D01*
X111985037Y-131506903D01*
X112331274Y-131853745D01*
X112783885Y-132041685D01*
X113273965Y-132042113D01*
X113726903Y-131854963D01*
X114073745Y-131508726D01*
X114261685Y-131056115D01*
X114262113Y-130566035D01*
X114074963Y-130113097D01*
X113728726Y-129766255D01*
X113276115Y-129578315D01*
X112786035Y-129577887D01*
X112333097Y-129765037D01*
X111986255Y-130111274D01*
X111798315Y-130563885D01*
X111797887Y-131053965D01*
X111721686Y-131053965D01*
X111722113Y-130566035D01*
X111534963Y-130113097D01*
X111188726Y-129766255D01*
X110736115Y-129578315D01*
X110246035Y-129577887D01*
X109793097Y-129765037D01*
X109446255Y-130111274D01*
X109258315Y-130563885D01*
X109257887Y-131053965D01*
X109181686Y-131053965D01*
X109182113Y-130566035D01*
X108994963Y-130113097D01*
X108648726Y-129766255D01*
X108196115Y-129578315D01*
X107706035Y-129577887D01*
X107253097Y-129765037D01*
X106906255Y-130111274D01*
X106718315Y-130563885D01*
X106717887Y-131053965D01*
X106628715Y-131053965D01*
X106654717Y-130978222D01*
X106624345Y-130489085D01*
X106495593Y-130178250D01*
X106315674Y-130083931D01*
X105589605Y-130810000D01*
X105230395Y-130810000D01*
X104504326Y-130083931D01*
X104324407Y-130178250D01*
X104165283Y-130641778D01*
X104102046Y-130641778D01*
X104102113Y-130566035D01*
X103914963Y-130113097D01*
X103706557Y-129904326D01*
X104683931Y-129904326D01*
X105410000Y-130630395D01*
X106136069Y-129904326D01*
X106041750Y-129724407D01*
X105578222Y-129565283D01*
X105089085Y-129595655D01*
X104778250Y-129724407D01*
X104683931Y-129904326D01*
X103706557Y-129904326D01*
X103568726Y-129766255D01*
X103116115Y-129578315D01*
X102626035Y-129577887D01*
X102173097Y-129765037D01*
X101826255Y-130111274D01*
X101638315Y-130563885D01*
X101637887Y-131053965D01*
X101561686Y-131053965D01*
X101562113Y-130566035D01*
X101374963Y-130113097D01*
X101028726Y-129766255D01*
X100576115Y-129578315D01*
X100086035Y-129577887D01*
X99633097Y-129765037D01*
X99286255Y-130111274D01*
X99098315Y-130563885D01*
X99097887Y-131053965D01*
X99021686Y-131053965D01*
X99022113Y-130566035D01*
X98834963Y-130113097D01*
X98488726Y-129766255D01*
X98036115Y-129578315D01*
X97546035Y-129577887D01*
X97093097Y-129765037D01*
X96746255Y-130111274D01*
X96558315Y-130563885D01*
X96557887Y-131053965D01*
X95706000Y-131053965D01*
X95706000Y-122428000D01*
X96012000Y-122428000D01*
X96012000Y-126746000D01*
X96050669Y-126940403D01*
X96160790Y-127105210D01*
X96711222Y-127655642D01*
X96558315Y-128023885D01*
X96557887Y-128513965D01*
X96745037Y-128966903D01*
X97091274Y-129313745D01*
X97543885Y-129501685D01*
X98033965Y-129502113D01*
X98486903Y-129314963D01*
X98833745Y-128968726D01*
X99021685Y-128516115D01*
X99021686Y-128513965D01*
X111797887Y-128513965D01*
X111985037Y-128966903D01*
X112331274Y-129313745D01*
X112783885Y-129501685D01*
X113273965Y-129502113D01*
X113726903Y-129314963D01*
X114073745Y-128968726D01*
X114261685Y-128516115D01*
X114262113Y-128026035D01*
X114074963Y-127573097D01*
X113728726Y-127226255D01*
X113276115Y-127038315D01*
X112786035Y-127037887D01*
X112333097Y-127225037D01*
X111986255Y-127571274D01*
X111798315Y-128023885D01*
X111797887Y-128513965D01*
X99021686Y-128513965D01*
X99022113Y-128026035D01*
X98834963Y-127573097D01*
X98579293Y-127316980D01*
X101172511Y-127316980D01*
X101296755Y-127616964D01*
X101613944Y-127977652D01*
X102045018Y-128189501D01*
X102235000Y-128129193D01*
X102235000Y-127127000D01*
X102489000Y-127127000D01*
X102489000Y-128129193D01*
X102678982Y-128189501D01*
X103110056Y-127977652D01*
X103427245Y-127616964D01*
X103551489Y-127316980D01*
X103490627Y-127127000D01*
X102489000Y-127127000D01*
X102235000Y-127127000D01*
X101233373Y-127127000D01*
X101172511Y-127316980D01*
X98579293Y-127316980D01*
X98488726Y-127226255D01*
X98036115Y-127038315D01*
X97546035Y-127037887D01*
X97534906Y-127042486D01*
X97390353Y-126897933D01*
X97543885Y-126961685D01*
X98033965Y-126962113D01*
X98486903Y-126774963D01*
X98833745Y-126428726D01*
X98912941Y-126238000D01*
X101424300Y-126238000D01*
X101296755Y-126383036D01*
X101172511Y-126683020D01*
X101233373Y-126873000D01*
X102235000Y-126873000D01*
X102235000Y-126853000D01*
X102489000Y-126853000D01*
X102489000Y-126873000D01*
X103490627Y-126873000D01*
X103551489Y-126683020D01*
X103427245Y-126383036D01*
X103191193Y-126114612D01*
X103229210Y-126089210D01*
X103344455Y-125973965D01*
X111797887Y-125973965D01*
X111985037Y-126426903D01*
X112331274Y-126773745D01*
X112783885Y-126961685D01*
X113273965Y-126962113D01*
X113726903Y-126774963D01*
X114073745Y-126428726D01*
X114261685Y-125976115D01*
X114262113Y-125486035D01*
X114074963Y-125033097D01*
X113728726Y-124686255D01*
X113276115Y-124498315D01*
X112786035Y-124497887D01*
X112333097Y-124685037D01*
X111986255Y-125031274D01*
X111798315Y-125483885D01*
X111797887Y-125973965D01*
X103344455Y-125973965D01*
X103991210Y-125327210D01*
X103998241Y-125316688D01*
X104007435Y-125330448D01*
X104406800Y-125597296D01*
X104877883Y-125691000D01*
X104926117Y-125691000D01*
X105397200Y-125597296D01*
X105796565Y-125330448D01*
X106063413Y-124931083D01*
X106157117Y-124460000D01*
X106063413Y-123988917D01*
X105796565Y-123589552D01*
X105563714Y-123433965D01*
X111797887Y-123433965D01*
X111985037Y-123886903D01*
X112331274Y-124233745D01*
X112783885Y-124421685D01*
X113273965Y-124422113D01*
X113726903Y-124234963D01*
X114073745Y-123888726D01*
X114261685Y-123436115D01*
X114262113Y-122946035D01*
X114074963Y-122493097D01*
X113728726Y-122146255D01*
X113276115Y-121958315D01*
X112786035Y-121957887D01*
X112333097Y-122145037D01*
X111986255Y-122491274D01*
X111798315Y-122943885D01*
X111797887Y-123433965D01*
X105563714Y-123433965D01*
X105397200Y-123322704D01*
X104926117Y-123229000D01*
X104877883Y-123229000D01*
X104406800Y-123322704D01*
X104140000Y-123500975D01*
X104140000Y-123400420D01*
X104470461Y-123069959D01*
X104877883Y-123151000D01*
X104926117Y-123151000D01*
X105397200Y-123057296D01*
X105796565Y-122790448D01*
X106063413Y-122391083D01*
X106157117Y-121920000D01*
X106063413Y-121448917D01*
X105796565Y-121049552D01*
X105563714Y-120893965D01*
X111797887Y-120893965D01*
X111985037Y-121346903D01*
X112331274Y-121693745D01*
X112783885Y-121881685D01*
X113273965Y-121882113D01*
X113726903Y-121694963D01*
X114073745Y-121348726D01*
X114261685Y-120896115D01*
X114262113Y-120406035D01*
X114074963Y-119953097D01*
X113728726Y-119606255D01*
X113276115Y-119418315D01*
X112786035Y-119417887D01*
X112333097Y-119605037D01*
X111986255Y-119951274D01*
X111798315Y-120403885D01*
X111797887Y-120893965D01*
X105563714Y-120893965D01*
X105397200Y-120782704D01*
X104926117Y-120689000D01*
X104877883Y-120689000D01*
X104406800Y-120782704D01*
X104007435Y-121049552D01*
X103740587Y-121448917D01*
X103646883Y-121920000D01*
X103735927Y-122367653D01*
X103272790Y-122830790D01*
X103162669Y-122995597D01*
X103124000Y-123190000D01*
X103124000Y-123500975D01*
X102857200Y-123322704D01*
X102386117Y-123229000D01*
X102337883Y-123229000D01*
X101866800Y-123322704D01*
X101467435Y-123589552D01*
X101200587Y-123988917D01*
X101106883Y-124460000D01*
X101200587Y-124931083D01*
X101394972Y-125222000D01*
X98913016Y-125222000D01*
X98834963Y-125033097D01*
X98488726Y-124686255D01*
X98036115Y-124498315D01*
X97546035Y-124497887D01*
X97093097Y-124685037D01*
X97028000Y-124750020D01*
X97028000Y-124170360D01*
X97091274Y-124233745D01*
X97543885Y-124421685D01*
X98033965Y-124422113D01*
X98486903Y-124234963D01*
X98833745Y-123888726D01*
X99021685Y-123436115D01*
X99022113Y-122946035D01*
X98834963Y-122493097D01*
X98769980Y-122428000D01*
X101225254Y-122428000D01*
X101467435Y-122790448D01*
X101866800Y-123057296D01*
X102337883Y-123151000D01*
X102386117Y-123151000D01*
X102857200Y-123057296D01*
X103256565Y-122790448D01*
X103523413Y-122391083D01*
X103617117Y-121920000D01*
X103523413Y-121448917D01*
X103256565Y-121049552D01*
X102857200Y-120782704D01*
X102386117Y-120689000D01*
X102337883Y-120689000D01*
X101866800Y-120782704D01*
X101467435Y-121049552D01*
X101225254Y-121412000D01*
X98770360Y-121412000D01*
X98833745Y-121348726D01*
X99021685Y-120896115D01*
X99022113Y-120406035D01*
X98834963Y-119953097D01*
X98488726Y-119606255D01*
X98036115Y-119418315D01*
X97546035Y-119417887D01*
X97093097Y-119605037D01*
X96746255Y-119951274D01*
X96558315Y-120403885D01*
X96557887Y-120893965D01*
X96745037Y-121346903D01*
X96846133Y-121448175D01*
X96833597Y-121450669D01*
X96833595Y-121450670D01*
X96833596Y-121450670D01*
X96668789Y-121560790D01*
X96160790Y-122068790D01*
X96050669Y-122233597D01*
X96012000Y-122428000D01*
X95706000Y-122428000D01*
X95706000Y-118353965D01*
X96557887Y-118353965D01*
X96745037Y-118806903D01*
X97091274Y-119153745D01*
X97543885Y-119341685D01*
X98033965Y-119342113D01*
X98486903Y-119154963D01*
X98833745Y-118808726D01*
X99021685Y-118356115D01*
X99022113Y-117866035D01*
X98834963Y-117413097D01*
X98488726Y-117066255D01*
X98036115Y-116878315D01*
X97546035Y-116877887D01*
X97093097Y-117065037D01*
X96746255Y-117411274D01*
X96558315Y-117863885D01*
X96557887Y-118353965D01*
X95706000Y-118353965D01*
X95706000Y-115813965D01*
X96557887Y-115813965D01*
X96745037Y-116266903D01*
X97091274Y-116613745D01*
X97543885Y-116801685D01*
X98033965Y-116802113D01*
X98224829Y-116723249D01*
X101162826Y-119661246D01*
X101200587Y-119851083D01*
X101467435Y-120250448D01*
X101866800Y-120517296D01*
X102337883Y-120611000D01*
X102386117Y-120611000D01*
X102857200Y-120517296D01*
X103256565Y-120250448D01*
X103523413Y-119851083D01*
X103617117Y-119380000D01*
X103646883Y-119380000D01*
X103740587Y-119851083D01*
X104007435Y-120250448D01*
X104406800Y-120517296D01*
X104877883Y-120611000D01*
X104926117Y-120611000D01*
X105397200Y-120517296D01*
X105796565Y-120250448D01*
X106063413Y-119851083D01*
X106157117Y-119380000D01*
X106063413Y-118908917D01*
X105796565Y-118509552D01*
X105563714Y-118353965D01*
X111797887Y-118353965D01*
X111985037Y-118806903D01*
X112331274Y-119153745D01*
X112783885Y-119341685D01*
X113273965Y-119342113D01*
X113726903Y-119154963D01*
X114073745Y-118808726D01*
X114261685Y-118356115D01*
X114262113Y-117866035D01*
X114074963Y-117413097D01*
X113728726Y-117066255D01*
X113276115Y-116878315D01*
X112786035Y-116877887D01*
X112333097Y-117065037D01*
X111986255Y-117411274D01*
X111798315Y-117863885D01*
X111797887Y-118353965D01*
X105563714Y-118353965D01*
X105397200Y-118242704D01*
X104926117Y-118149000D01*
X104877883Y-118149000D01*
X104406800Y-118242704D01*
X104007435Y-118509552D01*
X103740587Y-118908917D01*
X103646883Y-119380000D01*
X103617117Y-119380000D01*
X103523413Y-118908917D01*
X103256565Y-118509552D01*
X102857200Y-118242704D01*
X102386117Y-118149000D01*
X102337883Y-118149000D01*
X101866800Y-118242704D01*
X101467435Y-118509552D01*
X101459639Y-118521219D01*
X98943302Y-116004882D01*
X99021685Y-115816115D01*
X99022113Y-115326035D01*
X98834963Y-114873097D01*
X98488726Y-114526255D01*
X98036115Y-114338315D01*
X97546035Y-114337887D01*
X97093097Y-114525037D01*
X96746255Y-114871274D01*
X96558315Y-115323885D01*
X96557887Y-115813965D01*
X95706000Y-115813965D01*
X95706000Y-113273965D01*
X96557887Y-113273965D01*
X96745037Y-113726903D01*
X97091274Y-114073745D01*
X97543885Y-114261685D01*
X98033965Y-114262113D01*
X98486903Y-114074963D01*
X98833745Y-113728726D01*
X99021685Y-113276115D01*
X99022113Y-112786035D01*
X98834963Y-112333097D01*
X98488726Y-111986255D01*
X98036115Y-111798315D01*
X97546035Y-111797887D01*
X97093097Y-111985037D01*
X96746255Y-112331274D01*
X96558315Y-112783885D01*
X96557887Y-113273965D01*
X95706000Y-113273965D01*
X95706000Y-110733965D01*
X96557887Y-110733965D01*
X96745037Y-111186903D01*
X97091274Y-111533745D01*
X97543885Y-111721685D01*
X98033965Y-111722113D01*
X98486903Y-111534963D01*
X98833745Y-111188726D01*
X99021685Y-110736115D01*
X99022113Y-110246035D01*
X98834963Y-109793097D01*
X98488726Y-109446255D01*
X98036115Y-109258315D01*
X97546035Y-109257887D01*
X97093097Y-109445037D01*
X96746255Y-109791274D01*
X96558315Y-110243885D01*
X96557887Y-110733965D01*
X95706000Y-110733965D01*
X95706000Y-108193965D01*
X96557887Y-108193965D01*
X96745037Y-108646903D01*
X97091274Y-108993745D01*
X97543885Y-109181685D01*
X98033965Y-109182113D01*
X98486903Y-108994963D01*
X98833745Y-108648726D01*
X99021685Y-108196115D01*
X99022113Y-107706035D01*
X98834963Y-107253097D01*
X98488726Y-106906255D01*
X98036115Y-106718315D01*
X97546035Y-106717887D01*
X97093097Y-106905037D01*
X96746255Y-107251274D01*
X96558315Y-107703885D01*
X96557887Y-108193965D01*
X95706000Y-108193965D01*
X95706000Y-103113965D01*
X96557887Y-103113965D01*
X96745037Y-103566903D01*
X97091274Y-103913745D01*
X97543885Y-104101685D01*
X98033965Y-104102113D01*
X98046900Y-104096768D01*
X98194011Y-104243879D01*
X98036115Y-104178315D01*
X97546035Y-104177887D01*
X97093097Y-104365037D01*
X96746255Y-104711274D01*
X96558315Y-105163885D01*
X96557887Y-105653965D01*
X96745037Y-106106903D01*
X97091274Y-106453745D01*
X97543885Y-106641685D01*
X98033965Y-106642113D01*
X98486903Y-106454963D01*
X98833745Y-106108726D01*
X99021685Y-105656115D01*
X99022113Y-105166035D01*
X98955887Y-105005755D01*
X99644200Y-105694068D01*
X99644200Y-112268000D01*
X99696403Y-112530445D01*
X99845066Y-112752934D01*
X103694209Y-116602077D01*
X103646883Y-116840000D01*
X103740587Y-117311083D01*
X104007435Y-117710448D01*
X104406800Y-117977296D01*
X104877883Y-118071000D01*
X104926117Y-118071000D01*
X105397200Y-117977296D01*
X105796565Y-117710448D01*
X106063413Y-117311083D01*
X106157117Y-116840000D01*
X106063413Y-116368917D01*
X105796565Y-115969552D01*
X105563714Y-115813965D01*
X111797887Y-115813965D01*
X111985037Y-116266903D01*
X112331274Y-116613745D01*
X112783885Y-116801685D01*
X113273965Y-116802113D01*
X113726903Y-116614963D01*
X114073745Y-116268726D01*
X114261685Y-115816115D01*
X114262113Y-115326035D01*
X114074963Y-114873097D01*
X113728726Y-114526255D01*
X113276115Y-114338315D01*
X112786035Y-114337887D01*
X112333097Y-114525037D01*
X111986255Y-114871274D01*
X111798315Y-115323885D01*
X111797887Y-115813965D01*
X105563714Y-115813965D01*
X105397200Y-115702704D01*
X104926117Y-115609000D01*
X104877883Y-115609000D01*
X104680191Y-115648323D01*
X104459862Y-115427994D01*
X104585018Y-115489501D01*
X104775000Y-115429193D01*
X104775000Y-114427000D01*
X105029000Y-114427000D01*
X105029000Y-115429193D01*
X105218982Y-115489501D01*
X105650056Y-115277652D01*
X105967245Y-114916964D01*
X106091489Y-114616980D01*
X106030627Y-114427000D01*
X105029000Y-114427000D01*
X104775000Y-114427000D01*
X103773373Y-114427000D01*
X103712511Y-114616980D01*
X103757519Y-114725651D01*
X103014888Y-113983020D01*
X103712511Y-113983020D01*
X103773373Y-114173000D01*
X104775000Y-114173000D01*
X104775000Y-113170807D01*
X105029000Y-113170807D01*
X105029000Y-114173000D01*
X106030627Y-114173000D01*
X106091489Y-113983020D01*
X105967245Y-113683036D01*
X105650056Y-113322348D01*
X105551606Y-113273965D01*
X111797887Y-113273965D01*
X111985037Y-113726903D01*
X112331274Y-114073745D01*
X112783885Y-114261685D01*
X113273965Y-114262113D01*
X113726903Y-114074963D01*
X114073745Y-113728726D01*
X114261685Y-113276115D01*
X114262113Y-112786035D01*
X114074963Y-112333097D01*
X113728726Y-111986255D01*
X113276115Y-111798315D01*
X112786035Y-111797887D01*
X112333097Y-111985037D01*
X111986255Y-112331274D01*
X111798315Y-112783885D01*
X111797887Y-113273965D01*
X105551606Y-113273965D01*
X105218982Y-113110499D01*
X105029000Y-113170807D01*
X104775000Y-113170807D01*
X104585018Y-113110499D01*
X104153944Y-113322348D01*
X103836755Y-113683036D01*
X103712511Y-113983020D01*
X103014888Y-113983020D01*
X101944649Y-112912781D01*
X102337883Y-112991000D01*
X102386117Y-112991000D01*
X102857200Y-112897296D01*
X103256565Y-112630448D01*
X103523413Y-112231083D01*
X103617117Y-111760000D01*
X103646883Y-111760000D01*
X103740587Y-112231083D01*
X104007435Y-112630448D01*
X104406800Y-112897296D01*
X104877883Y-112991000D01*
X104926117Y-112991000D01*
X105397200Y-112897296D01*
X105796565Y-112630448D01*
X106063413Y-112231083D01*
X106157117Y-111760000D01*
X106068073Y-111312347D01*
X106646455Y-110733965D01*
X111797887Y-110733965D01*
X111985037Y-111186903D01*
X112331274Y-111533745D01*
X112783885Y-111721685D01*
X113273965Y-111722113D01*
X113726903Y-111534963D01*
X114073745Y-111188726D01*
X114261685Y-110736115D01*
X114262113Y-110246035D01*
X114074963Y-109793097D01*
X113728726Y-109446255D01*
X113276115Y-109258315D01*
X112786035Y-109257887D01*
X112333097Y-109445037D01*
X111986255Y-109791274D01*
X111798315Y-110243885D01*
X111797887Y-110733965D01*
X106646455Y-110733965D01*
X108817210Y-108563211D01*
X108927331Y-108398404D01*
X108944905Y-108310050D01*
X108964078Y-108213661D01*
X108983808Y-108193965D01*
X111797887Y-108193965D01*
X111985037Y-108646903D01*
X112331274Y-108993745D01*
X112783885Y-109181685D01*
X113273965Y-109182113D01*
X113726903Y-108994963D01*
X114073745Y-108648726D01*
X114261685Y-108196115D01*
X114262113Y-107706035D01*
X114074963Y-107253097D01*
X113728726Y-106906255D01*
X113276115Y-106718315D01*
X112786035Y-106717887D01*
X112333097Y-106905037D01*
X111986255Y-107251274D01*
X111798315Y-107703885D01*
X111797887Y-108193965D01*
X108983808Y-108193965D01*
X109071335Y-108106592D01*
X109181774Y-107840624D01*
X109182025Y-107552639D01*
X109072050Y-107286479D01*
X108868592Y-107082665D01*
X108602624Y-106972226D01*
X108314639Y-106971975D01*
X108048479Y-107081950D01*
X107844665Y-107285408D01*
X107734226Y-107551376D01*
X107733975Y-107839361D01*
X107842227Y-108101352D01*
X105333539Y-110610041D01*
X104926117Y-110529000D01*
X104877883Y-110529000D01*
X104406800Y-110622704D01*
X104007435Y-110889552D01*
X103740587Y-111288917D01*
X103646883Y-111760000D01*
X103617117Y-111760000D01*
X103523413Y-111288917D01*
X103256565Y-110889552D01*
X102857200Y-110622704D01*
X102386117Y-110529000D01*
X102337883Y-110529000D01*
X101866800Y-110622704D01*
X101467435Y-110889552D01*
X101200587Y-111288917D01*
X101106883Y-111760000D01*
X101185102Y-112153234D01*
X101015800Y-111983932D01*
X101015800Y-109220000D01*
X101106883Y-109220000D01*
X101200587Y-109691083D01*
X101467435Y-110090448D01*
X101866800Y-110357296D01*
X102337883Y-110451000D01*
X102386117Y-110451000D01*
X102857200Y-110357296D01*
X103256565Y-110090448D01*
X103523413Y-109691083D01*
X103617117Y-109220000D01*
X103646883Y-109220000D01*
X103740587Y-109691083D01*
X104007435Y-110090448D01*
X104406800Y-110357296D01*
X104877883Y-110451000D01*
X104926117Y-110451000D01*
X105397200Y-110357296D01*
X105796565Y-110090448D01*
X106063413Y-109691083D01*
X106157117Y-109220000D01*
X106063413Y-108748917D01*
X105796565Y-108349552D01*
X105397200Y-108082704D01*
X104926117Y-107989000D01*
X104877883Y-107989000D01*
X104406800Y-108082704D01*
X104007435Y-108349552D01*
X103740587Y-108748917D01*
X103646883Y-109220000D01*
X103617117Y-109220000D01*
X103523413Y-108748917D01*
X103256565Y-108349552D01*
X102857200Y-108082704D01*
X102386117Y-107989000D01*
X102337883Y-107989000D01*
X101866800Y-108082704D01*
X101467435Y-108349552D01*
X101200587Y-108748917D01*
X101106883Y-109220000D01*
X101015800Y-109220000D01*
X101015800Y-106680000D01*
X101106883Y-106680000D01*
X101200587Y-107151083D01*
X101467435Y-107550448D01*
X101866800Y-107817296D01*
X102337883Y-107911000D01*
X102386117Y-107911000D01*
X102857200Y-107817296D01*
X103256565Y-107550448D01*
X103523413Y-107151083D01*
X103617117Y-106680000D01*
X103646883Y-106680000D01*
X103740587Y-107151083D01*
X104007435Y-107550448D01*
X104406800Y-107817296D01*
X104877883Y-107911000D01*
X104926117Y-107911000D01*
X105397200Y-107817296D01*
X105796565Y-107550448D01*
X106063413Y-107151083D01*
X106157117Y-106680000D01*
X106063413Y-106208917D01*
X105796565Y-105809552D01*
X105563714Y-105653965D01*
X111797887Y-105653965D01*
X111985037Y-106106903D01*
X112331274Y-106453745D01*
X112783885Y-106641685D01*
X113273965Y-106642113D01*
X113726903Y-106454963D01*
X114073745Y-106108726D01*
X114261685Y-105656115D01*
X114262113Y-105166035D01*
X114074963Y-104713097D01*
X113728726Y-104366255D01*
X113276115Y-104178315D01*
X112786035Y-104177887D01*
X112333097Y-104365037D01*
X111986255Y-104711274D01*
X111798315Y-105163885D01*
X111797887Y-105653965D01*
X105563714Y-105653965D01*
X105397200Y-105542704D01*
X104926117Y-105449000D01*
X104877883Y-105449000D01*
X104406800Y-105542704D01*
X104007435Y-105809552D01*
X103740587Y-106208917D01*
X103646883Y-106680000D01*
X103617117Y-106680000D01*
X103523413Y-106208917D01*
X103256565Y-105809552D01*
X102857200Y-105542704D01*
X102386117Y-105449000D01*
X102337883Y-105449000D01*
X101866800Y-105542704D01*
X101467435Y-105809552D01*
X101200587Y-106208917D01*
X101106883Y-106680000D01*
X101015800Y-106680000D01*
X101015800Y-105410000D01*
X100963597Y-105147556D01*
X100814934Y-104925066D01*
X99179868Y-103290000D01*
X101123536Y-103290000D01*
X101123536Y-104990000D01*
X101150103Y-105131190D01*
X101233546Y-105260865D01*
X101360866Y-105347859D01*
X101512000Y-105378464D01*
X103212000Y-105378464D01*
X103353190Y-105351897D01*
X103482865Y-105268454D01*
X103569859Y-105141134D01*
X103600464Y-104990000D01*
X103600464Y-103290000D01*
X103573897Y-103148810D01*
X103551476Y-103113965D01*
X111797887Y-103113965D01*
X111985037Y-103566903D01*
X112331274Y-103913745D01*
X112783885Y-104101685D01*
X113273965Y-104102113D01*
X113726903Y-103914963D01*
X114073745Y-103568726D01*
X114261685Y-103116115D01*
X114262113Y-102626035D01*
X114074963Y-102173097D01*
X113728726Y-101826255D01*
X113276115Y-101638315D01*
X112786035Y-101637887D01*
X112333097Y-101825037D01*
X111986255Y-102171274D01*
X111798315Y-102623885D01*
X111797887Y-103113965D01*
X103551476Y-103113965D01*
X103490454Y-103019135D01*
X103363134Y-102932141D01*
X103212000Y-102901536D01*
X101512000Y-102901536D01*
X101370810Y-102928103D01*
X101241135Y-103011546D01*
X101154141Y-103138866D01*
X101123536Y-103290000D01*
X99179868Y-103290000D01*
X99017078Y-103127210D01*
X99021685Y-103116115D01*
X99022113Y-102626035D01*
X98834963Y-102173097D01*
X98488726Y-101826255D01*
X98036115Y-101638315D01*
X97546035Y-101637887D01*
X97093097Y-101825037D01*
X96746255Y-102171274D01*
X96558315Y-102623885D01*
X96557887Y-103113965D01*
X95706000Y-103113965D01*
X95706000Y-100573965D01*
X96557887Y-100573965D01*
X96745037Y-101026903D01*
X97091274Y-101373745D01*
X97543885Y-101561685D01*
X98033965Y-101562113D01*
X98486903Y-101374963D01*
X98833745Y-101028726D01*
X99021685Y-100576115D01*
X99021686Y-100573965D01*
X111797887Y-100573965D01*
X111985037Y-101026903D01*
X112331274Y-101373745D01*
X112783885Y-101561685D01*
X113273965Y-101562113D01*
X113726903Y-101374963D01*
X114073745Y-101028726D01*
X114261685Y-100576115D01*
X114262113Y-100086035D01*
X114074963Y-99633097D01*
X113728726Y-99286255D01*
X113276115Y-99098315D01*
X112786035Y-99097887D01*
X112333097Y-99285037D01*
X111986255Y-99631274D01*
X111798315Y-100083885D01*
X111797887Y-100573965D01*
X99021686Y-100573965D01*
X99022113Y-100086035D01*
X98834963Y-99633097D01*
X98488726Y-99286255D01*
X98036115Y-99098315D01*
X97546035Y-99097887D01*
X97093097Y-99285037D01*
X96746255Y-99631274D01*
X96558315Y-100083885D01*
X96557887Y-100573965D01*
X95706000Y-100573965D01*
X95706000Y-98033965D01*
X96557887Y-98033965D01*
X96745037Y-98486903D01*
X97091274Y-98833745D01*
X97543885Y-99021685D01*
X98033965Y-99022113D01*
X98486903Y-98834963D01*
X98540075Y-98781883D01*
X101893000Y-98781883D01*
X101893000Y-98830117D01*
X101986704Y-99301200D01*
X102253552Y-99700565D01*
X102652917Y-99967413D01*
X103124000Y-100061117D01*
X103595083Y-99967413D01*
X103994448Y-99700565D01*
X104261296Y-99301200D01*
X104355000Y-98830117D01*
X104355000Y-98781883D01*
X104433000Y-98781883D01*
X104433000Y-98830117D01*
X104526704Y-99301200D01*
X104793552Y-99700565D01*
X105192917Y-99967413D01*
X105664000Y-100061117D01*
X106135083Y-99967413D01*
X106534448Y-99700565D01*
X106801296Y-99301200D01*
X106895000Y-98830117D01*
X106895000Y-98781883D01*
X106801296Y-98310800D01*
X106564226Y-97956000D01*
X106965536Y-97956000D01*
X106965536Y-99656000D01*
X106992103Y-99797190D01*
X107075546Y-99926865D01*
X107202866Y-100013859D01*
X107354000Y-100044464D01*
X109054000Y-100044464D01*
X109195190Y-100017897D01*
X109324865Y-99934454D01*
X109411859Y-99807134D01*
X109442464Y-99656000D01*
X109442464Y-98695674D01*
X112303931Y-98695674D01*
X112398250Y-98875593D01*
X112861778Y-99034717D01*
X113350915Y-99004345D01*
X113661750Y-98875593D01*
X113756069Y-98695674D01*
X113030000Y-97969605D01*
X112303931Y-98695674D01*
X109442464Y-98695674D01*
X109442464Y-97956000D01*
X109415897Y-97814810D01*
X109332454Y-97685135D01*
X109239728Y-97621778D01*
X111785283Y-97621778D01*
X111815655Y-98110915D01*
X111944407Y-98421750D01*
X112124326Y-98516069D01*
X112850395Y-97790000D01*
X113209605Y-97790000D01*
X113935674Y-98516069D01*
X114115593Y-98421750D01*
X114274717Y-97958222D01*
X114244345Y-97469085D01*
X114115593Y-97158250D01*
X113935674Y-97063931D01*
X113209605Y-97790000D01*
X112850395Y-97790000D01*
X112124326Y-97063931D01*
X111944407Y-97158250D01*
X111785283Y-97621778D01*
X109239728Y-97621778D01*
X109205134Y-97598141D01*
X109054000Y-97567536D01*
X107354000Y-97567536D01*
X107212810Y-97594103D01*
X107083135Y-97677546D01*
X106996141Y-97804866D01*
X106965536Y-97956000D01*
X106564226Y-97956000D01*
X106534448Y-97911435D01*
X106135083Y-97644587D01*
X105664000Y-97550883D01*
X105192917Y-97644587D01*
X104793552Y-97911435D01*
X104526704Y-98310800D01*
X104433000Y-98781883D01*
X104355000Y-98781883D01*
X104261296Y-98310800D01*
X103994448Y-97911435D01*
X103595083Y-97644587D01*
X103124000Y-97550883D01*
X102652917Y-97644587D01*
X102253552Y-97911435D01*
X101986704Y-98310800D01*
X101893000Y-98781883D01*
X98540075Y-98781883D01*
X98833745Y-98488726D01*
X99021685Y-98036115D01*
X99022113Y-97546035D01*
X98834963Y-97093097D01*
X98626557Y-96884326D01*
X112303931Y-96884326D01*
X113030000Y-97610395D01*
X113756069Y-96884326D01*
X113661750Y-96704407D01*
X113198222Y-96545283D01*
X112709085Y-96575655D01*
X112398250Y-96704407D01*
X112303931Y-96884326D01*
X98626557Y-96884326D01*
X98488726Y-96746255D01*
X98036115Y-96558315D01*
X97546035Y-96557887D01*
X97093097Y-96745037D01*
X96746255Y-97091274D01*
X96558315Y-97543885D01*
X96557887Y-98033965D01*
X95706000Y-98033965D01*
X95706000Y-95706000D01*
X115114000Y-95706000D01*
X115114000Y-132894000D01*
X115114000Y-132894000D01*
G37*
X115114000Y-132894000D02*
X95706000Y-132894000D01*
X95706000Y-131053965D01*
X96557887Y-131053965D01*
X96745037Y-131506903D01*
X97091274Y-131853745D01*
X97543885Y-132041685D01*
X98033965Y-132042113D01*
X98486903Y-131854963D01*
X98833745Y-131508726D01*
X99021685Y-131056115D01*
X99021686Y-131053965D01*
X99097887Y-131053965D01*
X99285037Y-131506903D01*
X99631274Y-131853745D01*
X100083885Y-132041685D01*
X100573965Y-132042113D01*
X101026903Y-131854963D01*
X101373745Y-131508726D01*
X101561685Y-131056115D01*
X101561686Y-131053965D01*
X101637887Y-131053965D01*
X101825037Y-131506903D01*
X102171274Y-131853745D01*
X102623885Y-132041685D01*
X103113965Y-132042113D01*
X103566903Y-131854963D01*
X103706435Y-131715674D01*
X104683931Y-131715674D01*
X104778250Y-131895593D01*
X105241778Y-132054717D01*
X105730915Y-132024345D01*
X106041750Y-131895593D01*
X106136069Y-131715674D01*
X105410000Y-130989605D01*
X104683931Y-131715674D01*
X103706435Y-131715674D01*
X103913745Y-131508726D01*
X104101685Y-131056115D01*
X104102046Y-130641778D01*
X104165283Y-130641778D01*
X104195655Y-131130915D01*
X104324407Y-131441750D01*
X104504326Y-131536069D01*
X105230395Y-130810000D01*
X105589605Y-130810000D01*
X106315674Y-131536069D01*
X106495593Y-131441750D01*
X106628715Y-131053965D01*
X106717887Y-131053965D01*
X106905037Y-131506903D01*
X107251274Y-131853745D01*
X107703885Y-132041685D01*
X108193965Y-132042113D01*
X108646903Y-131854963D01*
X108993745Y-131508726D01*
X109181685Y-131056115D01*
X109181686Y-131053965D01*
X109257887Y-131053965D01*
X109445037Y-131506903D01*
X109791274Y-131853745D01*
X110243885Y-132041685D01*
X110733965Y-132042113D01*
X111186903Y-131854963D01*
X111533745Y-131508726D01*
X111721685Y-131056115D01*
X111721686Y-131053965D01*
X111797887Y-131053965D01*
X111985037Y-131506903D01*
X112331274Y-131853745D01*
X112783885Y-132041685D01*
X113273965Y-132042113D01*
X113726903Y-131854963D01*
X114073745Y-131508726D01*
X114261685Y-131056115D01*
X114262113Y-130566035D01*
X114074963Y-130113097D01*
X113728726Y-129766255D01*
X113276115Y-129578315D01*
X112786035Y-129577887D01*
X112333097Y-129765037D01*
X111986255Y-130111274D01*
X111798315Y-130563885D01*
X111797887Y-131053965D01*
X111721686Y-131053965D01*
X111722113Y-130566035D01*
X111534963Y-130113097D01*
X111188726Y-129766255D01*
X110736115Y-129578315D01*
X110246035Y-129577887D01*
X109793097Y-129765037D01*
X109446255Y-130111274D01*
X109258315Y-130563885D01*
X109257887Y-131053965D01*
X109181686Y-131053965D01*
X109182113Y-130566035D01*
X108994963Y-130113097D01*
X108648726Y-129766255D01*
X108196115Y-129578315D01*
X107706035Y-129577887D01*
X107253097Y-129765037D01*
X106906255Y-130111274D01*
X106718315Y-130563885D01*
X106717887Y-131053965D01*
X106628715Y-131053965D01*
X106654717Y-130978222D01*
X106624345Y-130489085D01*
X106495593Y-130178250D01*
X106315674Y-130083931D01*
X105589605Y-130810000D01*
X105230395Y-130810000D01*
X104504326Y-130083931D01*
X104324407Y-130178250D01*
X104165283Y-130641778D01*
X104102046Y-130641778D01*
X104102113Y-130566035D01*
X103914963Y-130113097D01*
X103706557Y-129904326D01*
X104683931Y-129904326D01*
X105410000Y-130630395D01*
X106136069Y-129904326D01*
X106041750Y-129724407D01*
X105578222Y-129565283D01*
X105089085Y-129595655D01*
X104778250Y-129724407D01*
X104683931Y-129904326D01*
X103706557Y-129904326D01*
X103568726Y-129766255D01*
X103116115Y-129578315D01*
X102626035Y-129577887D01*
X102173097Y-129765037D01*
X101826255Y-130111274D01*
X101638315Y-130563885D01*
X101637887Y-131053965D01*
X101561686Y-131053965D01*
X101562113Y-130566035D01*
X101374963Y-130113097D01*
X101028726Y-129766255D01*
X100576115Y-129578315D01*
X100086035Y-129577887D01*
X99633097Y-129765037D01*
X99286255Y-130111274D01*
X99098315Y-130563885D01*
X99097887Y-131053965D01*
X99021686Y-131053965D01*
X99022113Y-130566035D01*
X98834963Y-130113097D01*
X98488726Y-129766255D01*
X98036115Y-129578315D01*
X97546035Y-129577887D01*
X97093097Y-129765037D01*
X96746255Y-130111274D01*
X96558315Y-130563885D01*
X96557887Y-131053965D01*
X95706000Y-131053965D01*
X95706000Y-122428000D01*
X96012000Y-122428000D01*
X96012000Y-126746000D01*
X96050669Y-126940403D01*
X96160790Y-127105210D01*
X96711222Y-127655642D01*
X96558315Y-128023885D01*
X96557887Y-128513965D01*
X96745037Y-128966903D01*
X97091274Y-129313745D01*
X97543885Y-129501685D01*
X98033965Y-129502113D01*
X98486903Y-129314963D01*
X98833745Y-128968726D01*
X99021685Y-128516115D01*
X99021686Y-128513965D01*
X111797887Y-128513965D01*
X111985037Y-128966903D01*
X112331274Y-129313745D01*
X112783885Y-129501685D01*
X113273965Y-129502113D01*
X113726903Y-129314963D01*
X114073745Y-128968726D01*
X114261685Y-128516115D01*
X114262113Y-128026035D01*
X114074963Y-127573097D01*
X113728726Y-127226255D01*
X113276115Y-127038315D01*
X112786035Y-127037887D01*
X112333097Y-127225037D01*
X111986255Y-127571274D01*
X111798315Y-128023885D01*
X111797887Y-128513965D01*
X99021686Y-128513965D01*
X99022113Y-128026035D01*
X98834963Y-127573097D01*
X98579293Y-127316980D01*
X101172511Y-127316980D01*
X101296755Y-127616964D01*
X101613944Y-127977652D01*
X102045018Y-128189501D01*
X102235000Y-128129193D01*
X102235000Y-127127000D01*
X102489000Y-127127000D01*
X102489000Y-128129193D01*
X102678982Y-128189501D01*
X103110056Y-127977652D01*
X103427245Y-127616964D01*
X103551489Y-127316980D01*
X103490627Y-127127000D01*
X102489000Y-127127000D01*
X102235000Y-127127000D01*
X101233373Y-127127000D01*
X101172511Y-127316980D01*
X98579293Y-127316980D01*
X98488726Y-127226255D01*
X98036115Y-127038315D01*
X97546035Y-127037887D01*
X97534906Y-127042486D01*
X97390353Y-126897933D01*
X97543885Y-126961685D01*
X98033965Y-126962113D01*
X98486903Y-126774963D01*
X98833745Y-126428726D01*
X98912941Y-126238000D01*
X101424300Y-126238000D01*
X101296755Y-126383036D01*
X101172511Y-126683020D01*
X101233373Y-126873000D01*
X102235000Y-126873000D01*
X102235000Y-126853000D01*
X102489000Y-126853000D01*
X102489000Y-126873000D01*
X103490627Y-126873000D01*
X103551489Y-126683020D01*
X103427245Y-126383036D01*
X103191193Y-126114612D01*
X103229210Y-126089210D01*
X103344455Y-125973965D01*
X111797887Y-125973965D01*
X111985037Y-126426903D01*
X112331274Y-126773745D01*
X112783885Y-126961685D01*
X113273965Y-126962113D01*
X113726903Y-126774963D01*
X114073745Y-126428726D01*
X114261685Y-125976115D01*
X114262113Y-125486035D01*
X114074963Y-125033097D01*
X113728726Y-124686255D01*
X113276115Y-124498315D01*
X112786035Y-124497887D01*
X112333097Y-124685037D01*
X111986255Y-125031274D01*
X111798315Y-125483885D01*
X111797887Y-125973965D01*
X103344455Y-125973965D01*
X103991210Y-125327210D01*
X103998241Y-125316688D01*
X104007435Y-125330448D01*
X104406800Y-125597296D01*
X104877883Y-125691000D01*
X104926117Y-125691000D01*
X105397200Y-125597296D01*
X105796565Y-125330448D01*
X106063413Y-124931083D01*
X106157117Y-124460000D01*
X106063413Y-123988917D01*
X105796565Y-123589552D01*
X105563714Y-123433965D01*
X111797887Y-123433965D01*
X111985037Y-123886903D01*
X112331274Y-124233745D01*
X112783885Y-124421685D01*
X113273965Y-124422113D01*
X113726903Y-124234963D01*
X114073745Y-123888726D01*
X114261685Y-123436115D01*
X114262113Y-122946035D01*
X114074963Y-122493097D01*
X113728726Y-122146255D01*
X113276115Y-121958315D01*
X112786035Y-121957887D01*
X112333097Y-122145037D01*
X111986255Y-122491274D01*
X111798315Y-122943885D01*
X111797887Y-123433965D01*
X105563714Y-123433965D01*
X105397200Y-123322704D01*
X104926117Y-123229000D01*
X104877883Y-123229000D01*
X104406800Y-123322704D01*
X104140000Y-123500975D01*
X104140000Y-123400420D01*
X104470461Y-123069959D01*
X104877883Y-123151000D01*
X104926117Y-123151000D01*
X105397200Y-123057296D01*
X105796565Y-122790448D01*
X106063413Y-122391083D01*
X106157117Y-121920000D01*
X106063413Y-121448917D01*
X105796565Y-121049552D01*
X105563714Y-120893965D01*
X111797887Y-120893965D01*
X111985037Y-121346903D01*
X112331274Y-121693745D01*
X112783885Y-121881685D01*
X113273965Y-121882113D01*
X113726903Y-121694963D01*
X114073745Y-121348726D01*
X114261685Y-120896115D01*
X114262113Y-120406035D01*
X114074963Y-119953097D01*
X113728726Y-119606255D01*
X113276115Y-119418315D01*
X112786035Y-119417887D01*
X112333097Y-119605037D01*
X111986255Y-119951274D01*
X111798315Y-120403885D01*
X111797887Y-120893965D01*
X105563714Y-120893965D01*
X105397200Y-120782704D01*
X104926117Y-120689000D01*
X104877883Y-120689000D01*
X104406800Y-120782704D01*
X104007435Y-121049552D01*
X103740587Y-121448917D01*
X103646883Y-121920000D01*
X103735927Y-122367653D01*
X103272790Y-122830790D01*
X103162669Y-122995597D01*
X103124000Y-123190000D01*
X103124000Y-123500975D01*
X102857200Y-123322704D01*
X102386117Y-123229000D01*
X102337883Y-123229000D01*
X101866800Y-123322704D01*
X101467435Y-123589552D01*
X101200587Y-123988917D01*
X101106883Y-124460000D01*
X101200587Y-124931083D01*
X101394972Y-125222000D01*
X98913016Y-125222000D01*
X98834963Y-125033097D01*
X98488726Y-124686255D01*
X98036115Y-124498315D01*
X97546035Y-124497887D01*
X97093097Y-124685037D01*
X97028000Y-124750020D01*
X97028000Y-124170360D01*
X97091274Y-124233745D01*
X97543885Y-124421685D01*
X98033965Y-124422113D01*
X98486903Y-124234963D01*
X98833745Y-123888726D01*
X99021685Y-123436115D01*
X99022113Y-122946035D01*
X98834963Y-122493097D01*
X98769980Y-122428000D01*
X101225254Y-122428000D01*
X101467435Y-122790448D01*
X101866800Y-123057296D01*
X102337883Y-123151000D01*
X102386117Y-123151000D01*
X102857200Y-123057296D01*
X103256565Y-122790448D01*
X103523413Y-122391083D01*
X103617117Y-121920000D01*
X103523413Y-121448917D01*
X103256565Y-121049552D01*
X102857200Y-120782704D01*
X102386117Y-120689000D01*
X102337883Y-120689000D01*
X101866800Y-120782704D01*
X101467435Y-121049552D01*
X101225254Y-121412000D01*
X98770360Y-121412000D01*
X98833745Y-121348726D01*
X99021685Y-120896115D01*
X99022113Y-120406035D01*
X98834963Y-119953097D01*
X98488726Y-119606255D01*
X98036115Y-119418315D01*
X97546035Y-119417887D01*
X97093097Y-119605037D01*
X96746255Y-119951274D01*
X96558315Y-120403885D01*
X96557887Y-120893965D01*
X96745037Y-121346903D01*
X96846133Y-121448175D01*
X96833597Y-121450669D01*
X96833595Y-121450670D01*
X96833596Y-121450670D01*
X96668789Y-121560790D01*
X96160790Y-122068790D01*
X96050669Y-122233597D01*
X96012000Y-122428000D01*
X95706000Y-122428000D01*
X95706000Y-118353965D01*
X96557887Y-118353965D01*
X96745037Y-118806903D01*
X97091274Y-119153745D01*
X97543885Y-119341685D01*
X98033965Y-119342113D01*
X98486903Y-119154963D01*
X98833745Y-118808726D01*
X99021685Y-118356115D01*
X99022113Y-117866035D01*
X98834963Y-117413097D01*
X98488726Y-117066255D01*
X98036115Y-116878315D01*
X97546035Y-116877887D01*
X97093097Y-117065037D01*
X96746255Y-117411274D01*
X96558315Y-117863885D01*
X96557887Y-118353965D01*
X95706000Y-118353965D01*
X95706000Y-115813965D01*
X96557887Y-115813965D01*
X96745037Y-116266903D01*
X97091274Y-116613745D01*
X97543885Y-116801685D01*
X98033965Y-116802113D01*
X98224829Y-116723249D01*
X101162826Y-119661246D01*
X101200587Y-119851083D01*
X101467435Y-120250448D01*
X101866800Y-120517296D01*
X102337883Y-120611000D01*
X102386117Y-120611000D01*
X102857200Y-120517296D01*
X103256565Y-120250448D01*
X103523413Y-119851083D01*
X103617117Y-119380000D01*
X103646883Y-119380000D01*
X103740587Y-119851083D01*
X104007435Y-120250448D01*
X104406800Y-120517296D01*
X104877883Y-120611000D01*
X104926117Y-120611000D01*
X105397200Y-120517296D01*
X105796565Y-120250448D01*
X106063413Y-119851083D01*
X106157117Y-119380000D01*
X106063413Y-118908917D01*
X105796565Y-118509552D01*
X105563714Y-118353965D01*
X111797887Y-118353965D01*
X111985037Y-118806903D01*
X112331274Y-119153745D01*
X112783885Y-119341685D01*
X113273965Y-119342113D01*
X113726903Y-119154963D01*
X114073745Y-118808726D01*
X114261685Y-118356115D01*
X114262113Y-117866035D01*
X114074963Y-117413097D01*
X113728726Y-117066255D01*
X113276115Y-116878315D01*
X112786035Y-116877887D01*
X112333097Y-117065037D01*
X111986255Y-117411274D01*
X111798315Y-117863885D01*
X111797887Y-118353965D01*
X105563714Y-118353965D01*
X105397200Y-118242704D01*
X104926117Y-118149000D01*
X104877883Y-118149000D01*
X104406800Y-118242704D01*
X104007435Y-118509552D01*
X103740587Y-118908917D01*
X103646883Y-119380000D01*
X103617117Y-119380000D01*
X103523413Y-118908917D01*
X103256565Y-118509552D01*
X102857200Y-118242704D01*
X102386117Y-118149000D01*
X102337883Y-118149000D01*
X101866800Y-118242704D01*
X101467435Y-118509552D01*
X101459639Y-118521219D01*
X98943302Y-116004882D01*
X99021685Y-115816115D01*
X99022113Y-115326035D01*
X98834963Y-114873097D01*
X98488726Y-114526255D01*
X98036115Y-114338315D01*
X97546035Y-114337887D01*
X97093097Y-114525037D01*
X96746255Y-114871274D01*
X96558315Y-115323885D01*
X96557887Y-115813965D01*
X95706000Y-115813965D01*
X95706000Y-113273965D01*
X96557887Y-113273965D01*
X96745037Y-113726903D01*
X97091274Y-114073745D01*
X97543885Y-114261685D01*
X98033965Y-114262113D01*
X98486903Y-114074963D01*
X98833745Y-113728726D01*
X99021685Y-113276115D01*
X99022113Y-112786035D01*
X98834963Y-112333097D01*
X98488726Y-111986255D01*
X98036115Y-111798315D01*
X97546035Y-111797887D01*
X97093097Y-111985037D01*
X96746255Y-112331274D01*
X96558315Y-112783885D01*
X96557887Y-113273965D01*
X95706000Y-113273965D01*
X95706000Y-110733965D01*
X96557887Y-110733965D01*
X96745037Y-111186903D01*
X97091274Y-111533745D01*
X97543885Y-111721685D01*
X98033965Y-111722113D01*
X98486903Y-111534963D01*
X98833745Y-111188726D01*
X99021685Y-110736115D01*
X99022113Y-110246035D01*
X98834963Y-109793097D01*
X98488726Y-109446255D01*
X98036115Y-109258315D01*
X97546035Y-109257887D01*
X97093097Y-109445037D01*
X96746255Y-109791274D01*
X96558315Y-110243885D01*
X96557887Y-110733965D01*
X95706000Y-110733965D01*
X95706000Y-108193965D01*
X96557887Y-108193965D01*
X96745037Y-108646903D01*
X97091274Y-108993745D01*
X97543885Y-109181685D01*
X98033965Y-109182113D01*
X98486903Y-108994963D01*
X98833745Y-108648726D01*
X99021685Y-108196115D01*
X99022113Y-107706035D01*
X98834963Y-107253097D01*
X98488726Y-106906255D01*
X98036115Y-106718315D01*
X97546035Y-106717887D01*
X97093097Y-106905037D01*
X96746255Y-107251274D01*
X96558315Y-107703885D01*
X96557887Y-108193965D01*
X95706000Y-108193965D01*
X95706000Y-103113965D01*
X96557887Y-103113965D01*
X96745037Y-103566903D01*
X97091274Y-103913745D01*
X97543885Y-104101685D01*
X98033965Y-104102113D01*
X98046900Y-104096768D01*
X98194011Y-104243879D01*
X98036115Y-104178315D01*
X97546035Y-104177887D01*
X97093097Y-104365037D01*
X96746255Y-104711274D01*
X96558315Y-105163885D01*
X96557887Y-105653965D01*
X96745037Y-106106903D01*
X97091274Y-106453745D01*
X97543885Y-106641685D01*
X98033965Y-106642113D01*
X98486903Y-106454963D01*
X98833745Y-106108726D01*
X99021685Y-105656115D01*
X99022113Y-105166035D01*
X98955887Y-105005755D01*
X99644200Y-105694068D01*
X99644200Y-112268000D01*
X99696403Y-112530445D01*
X99845066Y-112752934D01*
X103694209Y-116602077D01*
X103646883Y-116840000D01*
X103740587Y-117311083D01*
X104007435Y-117710448D01*
X104406800Y-117977296D01*
X104877883Y-118071000D01*
X104926117Y-118071000D01*
X105397200Y-117977296D01*
X105796565Y-117710448D01*
X106063413Y-117311083D01*
X106157117Y-116840000D01*
X106063413Y-116368917D01*
X105796565Y-115969552D01*
X105563714Y-115813965D01*
X111797887Y-115813965D01*
X111985037Y-116266903D01*
X112331274Y-116613745D01*
X112783885Y-116801685D01*
X113273965Y-116802113D01*
X113726903Y-116614963D01*
X114073745Y-116268726D01*
X114261685Y-115816115D01*
X114262113Y-115326035D01*
X114074963Y-114873097D01*
X113728726Y-114526255D01*
X113276115Y-114338315D01*
X112786035Y-114337887D01*
X112333097Y-114525037D01*
X111986255Y-114871274D01*
X111798315Y-115323885D01*
X111797887Y-115813965D01*
X105563714Y-115813965D01*
X105397200Y-115702704D01*
X104926117Y-115609000D01*
X104877883Y-115609000D01*
X104680191Y-115648323D01*
X104459862Y-115427994D01*
X104585018Y-115489501D01*
X104775000Y-115429193D01*
X104775000Y-114427000D01*
X105029000Y-114427000D01*
X105029000Y-115429193D01*
X105218982Y-115489501D01*
X105650056Y-115277652D01*
X105967245Y-114916964D01*
X106091489Y-114616980D01*
X106030627Y-114427000D01*
X105029000Y-114427000D01*
X104775000Y-114427000D01*
X103773373Y-114427000D01*
X103712511Y-114616980D01*
X103757519Y-114725651D01*
X103014888Y-113983020D01*
X103712511Y-113983020D01*
X103773373Y-114173000D01*
X104775000Y-114173000D01*
X104775000Y-113170807D01*
X105029000Y-113170807D01*
X105029000Y-114173000D01*
X106030627Y-114173000D01*
X106091489Y-113983020D01*
X105967245Y-113683036D01*
X105650056Y-113322348D01*
X105551606Y-113273965D01*
X111797887Y-113273965D01*
X111985037Y-113726903D01*
X112331274Y-114073745D01*
X112783885Y-114261685D01*
X113273965Y-114262113D01*
X113726903Y-114074963D01*
X114073745Y-113728726D01*
X114261685Y-113276115D01*
X114262113Y-112786035D01*
X114074963Y-112333097D01*
X113728726Y-111986255D01*
X113276115Y-111798315D01*
X112786035Y-111797887D01*
X112333097Y-111985037D01*
X111986255Y-112331274D01*
X111798315Y-112783885D01*
X111797887Y-113273965D01*
X105551606Y-113273965D01*
X105218982Y-113110499D01*
X105029000Y-113170807D01*
X104775000Y-113170807D01*
X104585018Y-113110499D01*
X104153944Y-113322348D01*
X103836755Y-113683036D01*
X103712511Y-113983020D01*
X103014888Y-113983020D01*
X101944649Y-112912781D01*
X102337883Y-112991000D01*
X102386117Y-112991000D01*
X102857200Y-112897296D01*
X103256565Y-112630448D01*
X103523413Y-112231083D01*
X103617117Y-111760000D01*
X103646883Y-111760000D01*
X103740587Y-112231083D01*
X104007435Y-112630448D01*
X104406800Y-112897296D01*
X104877883Y-112991000D01*
X104926117Y-112991000D01*
X105397200Y-112897296D01*
X105796565Y-112630448D01*
X106063413Y-112231083D01*
X106157117Y-111760000D01*
X106068073Y-111312347D01*
X106646455Y-110733965D01*
X111797887Y-110733965D01*
X111985037Y-111186903D01*
X112331274Y-111533745D01*
X112783885Y-111721685D01*
X113273965Y-111722113D01*
X113726903Y-111534963D01*
X114073745Y-111188726D01*
X114261685Y-110736115D01*
X114262113Y-110246035D01*
X114074963Y-109793097D01*
X113728726Y-109446255D01*
X113276115Y-109258315D01*
X112786035Y-109257887D01*
X112333097Y-109445037D01*
X111986255Y-109791274D01*
X111798315Y-110243885D01*
X111797887Y-110733965D01*
X106646455Y-110733965D01*
X108817210Y-108563211D01*
X108927331Y-108398404D01*
X108944905Y-108310050D01*
X108964078Y-108213661D01*
X108983808Y-108193965D01*
X111797887Y-108193965D01*
X111985037Y-108646903D01*
X112331274Y-108993745D01*
X112783885Y-109181685D01*
X113273965Y-109182113D01*
X113726903Y-108994963D01*
X114073745Y-108648726D01*
X114261685Y-108196115D01*
X114262113Y-107706035D01*
X114074963Y-107253097D01*
X113728726Y-106906255D01*
X113276115Y-106718315D01*
X112786035Y-106717887D01*
X112333097Y-106905037D01*
X111986255Y-107251274D01*
X111798315Y-107703885D01*
X111797887Y-108193965D01*
X108983808Y-108193965D01*
X109071335Y-108106592D01*
X109181774Y-107840624D01*
X109182025Y-107552639D01*
X109072050Y-107286479D01*
X108868592Y-107082665D01*
X108602624Y-106972226D01*
X108314639Y-106971975D01*
X108048479Y-107081950D01*
X107844665Y-107285408D01*
X107734226Y-107551376D01*
X107733975Y-107839361D01*
X107842227Y-108101352D01*
X105333539Y-110610041D01*
X104926117Y-110529000D01*
X104877883Y-110529000D01*
X104406800Y-110622704D01*
X104007435Y-110889552D01*
X103740587Y-111288917D01*
X103646883Y-111760000D01*
X103617117Y-111760000D01*
X103523413Y-111288917D01*
X103256565Y-110889552D01*
X102857200Y-110622704D01*
X102386117Y-110529000D01*
X102337883Y-110529000D01*
X101866800Y-110622704D01*
X101467435Y-110889552D01*
X101200587Y-111288917D01*
X101106883Y-111760000D01*
X101185102Y-112153234D01*
X101015800Y-111983932D01*
X101015800Y-109220000D01*
X101106883Y-109220000D01*
X101200587Y-109691083D01*
X101467435Y-110090448D01*
X101866800Y-110357296D01*
X102337883Y-110451000D01*
X102386117Y-110451000D01*
X102857200Y-110357296D01*
X103256565Y-110090448D01*
X103523413Y-109691083D01*
X103617117Y-109220000D01*
X103646883Y-109220000D01*
X103740587Y-109691083D01*
X104007435Y-110090448D01*
X104406800Y-110357296D01*
X104877883Y-110451000D01*
X104926117Y-110451000D01*
X105397200Y-110357296D01*
X105796565Y-110090448D01*
X106063413Y-109691083D01*
X106157117Y-109220000D01*
X106063413Y-108748917D01*
X105796565Y-108349552D01*
X105397200Y-108082704D01*
X104926117Y-107989000D01*
X104877883Y-107989000D01*
X104406800Y-108082704D01*
X104007435Y-108349552D01*
X103740587Y-108748917D01*
X103646883Y-109220000D01*
X103617117Y-109220000D01*
X103523413Y-108748917D01*
X103256565Y-108349552D01*
X102857200Y-108082704D01*
X102386117Y-107989000D01*
X102337883Y-107989000D01*
X101866800Y-108082704D01*
X101467435Y-108349552D01*
X101200587Y-108748917D01*
X101106883Y-109220000D01*
X101015800Y-109220000D01*
X101015800Y-106680000D01*
X101106883Y-106680000D01*
X101200587Y-107151083D01*
X101467435Y-107550448D01*
X101866800Y-107817296D01*
X102337883Y-107911000D01*
X102386117Y-107911000D01*
X102857200Y-107817296D01*
X103256565Y-107550448D01*
X103523413Y-107151083D01*
X103617117Y-106680000D01*
X103646883Y-106680000D01*
X103740587Y-107151083D01*
X104007435Y-107550448D01*
X104406800Y-107817296D01*
X104877883Y-107911000D01*
X104926117Y-107911000D01*
X105397200Y-107817296D01*
X105796565Y-107550448D01*
X106063413Y-107151083D01*
X106157117Y-106680000D01*
X106063413Y-106208917D01*
X105796565Y-105809552D01*
X105563714Y-105653965D01*
X111797887Y-105653965D01*
X111985037Y-106106903D01*
X112331274Y-106453745D01*
X112783885Y-106641685D01*
X113273965Y-106642113D01*
X113726903Y-106454963D01*
X114073745Y-106108726D01*
X114261685Y-105656115D01*
X114262113Y-105166035D01*
X114074963Y-104713097D01*
X113728726Y-104366255D01*
X113276115Y-104178315D01*
X112786035Y-104177887D01*
X112333097Y-104365037D01*
X111986255Y-104711274D01*
X111798315Y-105163885D01*
X111797887Y-105653965D01*
X105563714Y-105653965D01*
X105397200Y-105542704D01*
X104926117Y-105449000D01*
X104877883Y-105449000D01*
X104406800Y-105542704D01*
X104007435Y-105809552D01*
X103740587Y-106208917D01*
X103646883Y-106680000D01*
X103617117Y-106680000D01*
X103523413Y-106208917D01*
X103256565Y-105809552D01*
X102857200Y-105542704D01*
X102386117Y-105449000D01*
X102337883Y-105449000D01*
X101866800Y-105542704D01*
X101467435Y-105809552D01*
X101200587Y-106208917D01*
X101106883Y-106680000D01*
X101015800Y-106680000D01*
X101015800Y-105410000D01*
X100963597Y-105147556D01*
X100814934Y-104925066D01*
X99179868Y-103290000D01*
X101123536Y-103290000D01*
X101123536Y-104990000D01*
X101150103Y-105131190D01*
X101233546Y-105260865D01*
X101360866Y-105347859D01*
X101512000Y-105378464D01*
X103212000Y-105378464D01*
X103353190Y-105351897D01*
X103482865Y-105268454D01*
X103569859Y-105141134D01*
X103600464Y-104990000D01*
X103600464Y-103290000D01*
X103573897Y-103148810D01*
X103551476Y-103113965D01*
X111797887Y-103113965D01*
X111985037Y-103566903D01*
X112331274Y-103913745D01*
X112783885Y-104101685D01*
X113273965Y-104102113D01*
X113726903Y-103914963D01*
X114073745Y-103568726D01*
X114261685Y-103116115D01*
X114262113Y-102626035D01*
X114074963Y-102173097D01*
X113728726Y-101826255D01*
X113276115Y-101638315D01*
X112786035Y-101637887D01*
X112333097Y-101825037D01*
X111986255Y-102171274D01*
X111798315Y-102623885D01*
X111797887Y-103113965D01*
X103551476Y-103113965D01*
X103490454Y-103019135D01*
X103363134Y-102932141D01*
X103212000Y-102901536D01*
X101512000Y-102901536D01*
X101370810Y-102928103D01*
X101241135Y-103011546D01*
X101154141Y-103138866D01*
X101123536Y-103290000D01*
X99179868Y-103290000D01*
X99017078Y-103127210D01*
X99021685Y-103116115D01*
X99022113Y-102626035D01*
X98834963Y-102173097D01*
X98488726Y-101826255D01*
X98036115Y-101638315D01*
X97546035Y-101637887D01*
X97093097Y-101825037D01*
X96746255Y-102171274D01*
X96558315Y-102623885D01*
X96557887Y-103113965D01*
X95706000Y-103113965D01*
X95706000Y-100573965D01*
X96557887Y-100573965D01*
X96745037Y-101026903D01*
X97091274Y-101373745D01*
X97543885Y-101561685D01*
X98033965Y-101562113D01*
X98486903Y-101374963D01*
X98833745Y-101028726D01*
X99021685Y-100576115D01*
X99021686Y-100573965D01*
X111797887Y-100573965D01*
X111985037Y-101026903D01*
X112331274Y-101373745D01*
X112783885Y-101561685D01*
X113273965Y-101562113D01*
X113726903Y-101374963D01*
X114073745Y-101028726D01*
X114261685Y-100576115D01*
X114262113Y-100086035D01*
X114074963Y-99633097D01*
X113728726Y-99286255D01*
X113276115Y-99098315D01*
X112786035Y-99097887D01*
X112333097Y-99285037D01*
X111986255Y-99631274D01*
X111798315Y-100083885D01*
X111797887Y-100573965D01*
X99021686Y-100573965D01*
X99022113Y-100086035D01*
X98834963Y-99633097D01*
X98488726Y-99286255D01*
X98036115Y-99098315D01*
X97546035Y-99097887D01*
X97093097Y-99285037D01*
X96746255Y-99631274D01*
X96558315Y-100083885D01*
X96557887Y-100573965D01*
X95706000Y-100573965D01*
X95706000Y-98033965D01*
X96557887Y-98033965D01*
X96745037Y-98486903D01*
X97091274Y-98833745D01*
X97543885Y-99021685D01*
X98033965Y-99022113D01*
X98486903Y-98834963D01*
X98540075Y-98781883D01*
X101893000Y-98781883D01*
X101893000Y-98830117D01*
X101986704Y-99301200D01*
X102253552Y-99700565D01*
X102652917Y-99967413D01*
X103124000Y-100061117D01*
X103595083Y-99967413D01*
X103994448Y-99700565D01*
X104261296Y-99301200D01*
X104355000Y-98830117D01*
X104355000Y-98781883D01*
X104433000Y-98781883D01*
X104433000Y-98830117D01*
X104526704Y-99301200D01*
X104793552Y-99700565D01*
X105192917Y-99967413D01*
X105664000Y-100061117D01*
X106135083Y-99967413D01*
X106534448Y-99700565D01*
X106801296Y-99301200D01*
X106895000Y-98830117D01*
X106895000Y-98781883D01*
X106801296Y-98310800D01*
X106564226Y-97956000D01*
X106965536Y-97956000D01*
X106965536Y-99656000D01*
X106992103Y-99797190D01*
X107075546Y-99926865D01*
X107202866Y-100013859D01*
X107354000Y-100044464D01*
X109054000Y-100044464D01*
X109195190Y-100017897D01*
X109324865Y-99934454D01*
X109411859Y-99807134D01*
X109442464Y-99656000D01*
X109442464Y-98695674D01*
X112303931Y-98695674D01*
X112398250Y-98875593D01*
X112861778Y-99034717D01*
X113350915Y-99004345D01*
X113661750Y-98875593D01*
X113756069Y-98695674D01*
X113030000Y-97969605D01*
X112303931Y-98695674D01*
X109442464Y-98695674D01*
X109442464Y-97956000D01*
X109415897Y-97814810D01*
X109332454Y-97685135D01*
X109239728Y-97621778D01*
X111785283Y-97621778D01*
X111815655Y-98110915D01*
X111944407Y-98421750D01*
X112124326Y-98516069D01*
X112850395Y-97790000D01*
X113209605Y-97790000D01*
X113935674Y-98516069D01*
X114115593Y-98421750D01*
X114274717Y-97958222D01*
X114244345Y-97469085D01*
X114115593Y-97158250D01*
X113935674Y-97063931D01*
X113209605Y-97790000D01*
X112850395Y-97790000D01*
X112124326Y-97063931D01*
X111944407Y-97158250D01*
X111785283Y-97621778D01*
X109239728Y-97621778D01*
X109205134Y-97598141D01*
X109054000Y-97567536D01*
X107354000Y-97567536D01*
X107212810Y-97594103D01*
X107083135Y-97677546D01*
X106996141Y-97804866D01*
X106965536Y-97956000D01*
X106564226Y-97956000D01*
X106534448Y-97911435D01*
X106135083Y-97644587D01*
X105664000Y-97550883D01*
X105192917Y-97644587D01*
X104793552Y-97911435D01*
X104526704Y-98310800D01*
X104433000Y-98781883D01*
X104355000Y-98781883D01*
X104261296Y-98310800D01*
X103994448Y-97911435D01*
X103595083Y-97644587D01*
X103124000Y-97550883D01*
X102652917Y-97644587D01*
X102253552Y-97911435D01*
X101986704Y-98310800D01*
X101893000Y-98781883D01*
X98540075Y-98781883D01*
X98833745Y-98488726D01*
X99021685Y-98036115D01*
X99022113Y-97546035D01*
X98834963Y-97093097D01*
X98626557Y-96884326D01*
X112303931Y-96884326D01*
X113030000Y-97610395D01*
X113756069Y-96884326D01*
X113661750Y-96704407D01*
X113198222Y-96545283D01*
X112709085Y-96575655D01*
X112398250Y-96704407D01*
X112303931Y-96884326D01*
X98626557Y-96884326D01*
X98488726Y-96746255D01*
X98036115Y-96558315D01*
X97546035Y-96557887D01*
X97093097Y-96745037D01*
X96746255Y-97091274D01*
X96558315Y-97543885D01*
X96557887Y-98033965D01*
X95706000Y-98033965D01*
X95706000Y-95706000D01*
X115114000Y-95706000D01*
X115114000Y-132894000D01*
M02*
