M48
;DRILL file {KiCad 4.0.0-rc1-stable} date 28/03/2017 11:06:11
;FORMAT={2:4/ absolute / inch / suppress leading zeros}
FMAT,2
INCH,TZ
T1C0.013
T2C0.039
T3C0.040
%
G90
G05
M72
T1
X42700Y-42400
T2
X40300Y-41000
X40300Y-42000
X40300Y-43000
X40300Y-44000
X40300Y-47000
X40300Y-48000
X40300Y-49000
X40300Y-50000
X40600Y-38900
X41300Y-42000
X41300Y-43000
X41300Y-44000
X41300Y-45000
X41300Y-46000
X41300Y-47000
X41300Y-48000
X41300Y-49000
X41600Y-38900
X42600Y-38900
T3
X38500Y-38500
X38500Y-39500
X38500Y-40500
X38500Y-41500
X38500Y-42500
X38500Y-43500
X38500Y-44500
X38500Y-45500
X38500Y-46500
X38500Y-47500
X38500Y-48500
X38500Y-49500
X38500Y-50500
X38500Y-51500
X39500Y-51500
X40500Y-51500
X41500Y-51500
X42500Y-51500
X43500Y-51500
X44500Y-38500
X44500Y-39500
X44500Y-40500
X44500Y-41500
X44500Y-42500
X44500Y-43500
X44500Y-44500
X44500Y-45500
X44500Y-46500
X44500Y-47500
X44500Y-48500
X44500Y-49500
X44500Y-50500
X44500Y-51500
T0
M30
