G04 #@! TF.FileFunction,Legend,Bot*
%FSLAX46Y46*%
G04 Gerber Fmt 4.6, Leading zero omitted, Abs format (unit mm)*
G04 Created by KiCad (PCBNEW 4.0.0-rc1-stable) date 28/03/2017 11:06:10*
%MOMM*%
G01*
G04 APERTURE LIST*
%ADD10C,0.076200*%
%ADD11C,0.300000*%
%ADD12C,0.150000*%
%ADD13C,0.127000*%
G04 APERTURE END LIST*
D10*
D11*
X109235428Y-100524571D02*
X108378285Y-100524571D01*
X108806856Y-102024571D02*
X108806856Y-100524571D01*
X107306857Y-101953143D02*
X107449714Y-102024571D01*
X107735428Y-102024571D01*
X107878285Y-101953143D01*
X107949714Y-101810286D01*
X107949714Y-101238857D01*
X107878285Y-101096000D01*
X107735428Y-101024571D01*
X107449714Y-101024571D01*
X107306857Y-101096000D01*
X107235428Y-101238857D01*
X107235428Y-101381714D01*
X107949714Y-101524571D01*
X106021143Y-101953143D02*
X106164000Y-102024571D01*
X106449714Y-102024571D01*
X106592571Y-101953143D01*
X106664000Y-101810286D01*
X106664000Y-101238857D01*
X106592571Y-101096000D01*
X106449714Y-101024571D01*
X106164000Y-101024571D01*
X106021143Y-101096000D01*
X105949714Y-101238857D01*
X105949714Y-101381714D01*
X106664000Y-101524571D01*
X105306857Y-101024571D02*
X105306857Y-102024571D01*
X105306857Y-101167429D02*
X105235429Y-101096000D01*
X105092571Y-101024571D01*
X104878286Y-101024571D01*
X104735429Y-101096000D01*
X104664000Y-101238857D01*
X104664000Y-102024571D01*
X104021143Y-101953143D02*
X103878286Y-102024571D01*
X103592571Y-102024571D01*
X103449714Y-101953143D01*
X103378286Y-101810286D01*
X103378286Y-101738857D01*
X103449714Y-101596000D01*
X103592571Y-101524571D01*
X103806857Y-101524571D01*
X103949714Y-101453143D01*
X104021143Y-101310286D01*
X104021143Y-101238857D01*
X103949714Y-101096000D01*
X103806857Y-101024571D01*
X103592571Y-101024571D01*
X103449714Y-101096000D01*
X102878285Y-101024571D02*
X102521142Y-102024571D01*
X102164000Y-101024571D02*
X102521142Y-102024571D01*
X102664000Y-102381714D01*
X102735428Y-102453143D01*
X102878285Y-102524571D01*
D12*
X114300000Y-96520000D02*
X96520000Y-96520000D01*
X96520000Y-96520000D02*
X96520000Y-132080000D01*
X96520000Y-132080000D02*
X114300000Y-132080000D01*
X114300000Y-132080000D02*
X114300000Y-96520000D01*
D13*
X111324571Y-96864714D02*
X111324571Y-97481571D01*
X111288286Y-97554143D01*
X111252000Y-97590429D01*
X111179429Y-97626714D01*
X111034286Y-97626714D01*
X110961714Y-97590429D01*
X110925429Y-97554143D01*
X110889143Y-97481571D01*
X110889143Y-96864714D01*
X110127143Y-97626714D02*
X110562571Y-97626714D01*
X110344857Y-97626714D02*
X110344857Y-96864714D01*
X110417428Y-96973571D01*
X110490000Y-97046143D01*
X110562571Y-97082429D01*
M02*
