G04 #@! TF.FileFunction,Legend,Top*
%FSLAX46Y46*%
G04 Gerber Fmt 4.6, Leading zero omitted, Abs format (unit mm)*
G04 Created by KiCad (PCBNEW 4.0.0-rc1-stable) date 28/03/2017 11:06:10*
%MOMM*%
G01*
G04 APERTURE LIST*
%ADD10C,0.076200*%
%ADD11C,0.127000*%
%ADD12C,0.120000*%
%ADD13C,0.150000*%
G04 APERTURE END LIST*
D10*
D11*
X109056714Y-129322286D02*
X109056714Y-128886857D01*
X109818714Y-129104571D02*
X109056714Y-129104571D01*
X109782429Y-128342572D02*
X109818714Y-128415143D01*
X109818714Y-128560286D01*
X109782429Y-128632857D01*
X109709857Y-128669143D01*
X109419571Y-128669143D01*
X109347000Y-128632857D01*
X109310714Y-128560286D01*
X109310714Y-128415143D01*
X109347000Y-128342572D01*
X109419571Y-128306286D01*
X109492143Y-128306286D01*
X109564714Y-128669143D01*
X109782429Y-127689429D02*
X109818714Y-127762000D01*
X109818714Y-127907143D01*
X109782429Y-127979714D01*
X109709857Y-128016000D01*
X109419571Y-128016000D01*
X109347000Y-127979714D01*
X109310714Y-127907143D01*
X109310714Y-127762000D01*
X109347000Y-127689429D01*
X109419571Y-127653143D01*
X109492143Y-127653143D01*
X109564714Y-128016000D01*
X109310714Y-127326571D02*
X109818714Y-127326571D01*
X109383286Y-127326571D02*
X109347000Y-127290286D01*
X109310714Y-127217714D01*
X109310714Y-127108857D01*
X109347000Y-127036286D01*
X109419571Y-127000000D01*
X109818714Y-127000000D01*
X109782429Y-126673428D02*
X109818714Y-126600857D01*
X109818714Y-126455714D01*
X109782429Y-126383142D01*
X109709857Y-126346857D01*
X109673571Y-126346857D01*
X109601000Y-126383142D01*
X109564714Y-126455714D01*
X109564714Y-126564571D01*
X109528429Y-126637142D01*
X109455857Y-126673428D01*
X109419571Y-126673428D01*
X109347000Y-126637142D01*
X109310714Y-126564571D01*
X109310714Y-126455714D01*
X109347000Y-126383142D01*
X109310714Y-126092857D02*
X109818714Y-125911428D01*
X109310714Y-125730000D02*
X109818714Y-125911428D01*
X110000143Y-125984000D01*
X110036429Y-126020285D01*
X110072714Y-126092857D01*
X109419571Y-124605143D02*
X109455857Y-124496286D01*
X109492143Y-124460001D01*
X109564714Y-124423715D01*
X109673571Y-124423715D01*
X109746143Y-124460001D01*
X109782429Y-124496286D01*
X109818714Y-124568858D01*
X109818714Y-124859143D01*
X109056714Y-124859143D01*
X109056714Y-124605143D01*
X109093000Y-124532572D01*
X109129286Y-124496286D01*
X109201857Y-124460001D01*
X109274429Y-124460001D01*
X109347000Y-124496286D01*
X109383286Y-124532572D01*
X109419571Y-124605143D01*
X109419571Y-124859143D01*
X109818714Y-124097143D02*
X109310714Y-124097143D01*
X109455857Y-124097143D02*
X109383286Y-124060858D01*
X109347000Y-124024572D01*
X109310714Y-123952001D01*
X109310714Y-123879429D01*
X109782429Y-123335144D02*
X109818714Y-123407715D01*
X109818714Y-123552858D01*
X109782429Y-123625429D01*
X109709857Y-123661715D01*
X109419571Y-123661715D01*
X109347000Y-123625429D01*
X109310714Y-123552858D01*
X109310714Y-123407715D01*
X109347000Y-123335144D01*
X109419571Y-123298858D01*
X109492143Y-123298858D01*
X109564714Y-123661715D01*
X109818714Y-122645715D02*
X109419571Y-122645715D01*
X109347000Y-122682001D01*
X109310714Y-122754572D01*
X109310714Y-122899715D01*
X109347000Y-122972286D01*
X109782429Y-122645715D02*
X109818714Y-122718286D01*
X109818714Y-122899715D01*
X109782429Y-122972286D01*
X109709857Y-123008572D01*
X109637286Y-123008572D01*
X109564714Y-122972286D01*
X109528429Y-122899715D01*
X109528429Y-122718286D01*
X109492143Y-122645715D01*
X109818714Y-122282857D02*
X109056714Y-122282857D01*
X109528429Y-122210286D02*
X109818714Y-121992572D01*
X109310714Y-121992572D02*
X109601000Y-122282857D01*
X109818714Y-121557143D02*
X109782429Y-121629715D01*
X109746143Y-121666000D01*
X109673571Y-121702286D01*
X109455857Y-121702286D01*
X109383286Y-121666000D01*
X109347000Y-121629715D01*
X109310714Y-121557143D01*
X109310714Y-121448286D01*
X109347000Y-121375715D01*
X109383286Y-121339429D01*
X109455857Y-121303143D01*
X109673571Y-121303143D01*
X109746143Y-121339429D01*
X109782429Y-121375715D01*
X109818714Y-121448286D01*
X109818714Y-121557143D01*
X109310714Y-120650000D02*
X109818714Y-120650000D01*
X109310714Y-120976571D02*
X109709857Y-120976571D01*
X109782429Y-120940286D01*
X109818714Y-120867714D01*
X109818714Y-120758857D01*
X109782429Y-120686286D01*
X109746143Y-120650000D01*
X109310714Y-120396000D02*
X109310714Y-120105714D01*
X109056714Y-120287142D02*
X109709857Y-120287142D01*
X109782429Y-120250857D01*
X109818714Y-120178285D01*
X109818714Y-120105714D01*
X100100190Y-103462667D02*
X100608190Y-103462667D01*
X100608190Y-103656191D01*
X100584000Y-103704572D01*
X100559810Y-103728763D01*
X100511429Y-103752953D01*
X100438857Y-103752953D01*
X100390476Y-103728763D01*
X100366286Y-103704572D01*
X100342095Y-103656191D01*
X100342095Y-103462667D01*
X100608190Y-103922286D02*
X100100190Y-104043239D01*
X100463048Y-104140001D01*
X100100190Y-104236763D01*
X100608190Y-104357715D01*
X100100190Y-104841524D02*
X100342095Y-104672191D01*
X100100190Y-104551238D02*
X100608190Y-104551238D01*
X100608190Y-104744762D01*
X100584000Y-104793143D01*
X100559810Y-104817334D01*
X100511429Y-104841524D01*
X100438857Y-104841524D01*
X100390476Y-104817334D01*
X100366286Y-104793143D01*
X100342095Y-104744762D01*
X100342095Y-104551238D01*
X100100190Y-105881714D02*
X100608190Y-105881714D01*
X100245333Y-106051048D01*
X100608190Y-106220381D01*
X100100190Y-106220381D01*
X100608190Y-106559047D02*
X100608190Y-106655809D01*
X100584000Y-106704190D01*
X100535619Y-106752571D01*
X100438857Y-106776762D01*
X100269524Y-106776762D01*
X100172762Y-106752571D01*
X100124381Y-106704190D01*
X100100190Y-106655809D01*
X100100190Y-106559047D01*
X100124381Y-106510666D01*
X100172762Y-106462285D01*
X100269524Y-106438095D01*
X100438857Y-106438095D01*
X100535619Y-106462285D01*
X100584000Y-106510666D01*
X100608190Y-106559047D01*
X100124381Y-106970285D02*
X100100190Y-107042856D01*
X100100190Y-107163809D01*
X100124381Y-107212190D01*
X100148571Y-107236380D01*
X100196952Y-107260571D01*
X100245333Y-107260571D01*
X100293714Y-107236380D01*
X100317905Y-107212190D01*
X100342095Y-107163809D01*
X100366286Y-107067047D01*
X100390476Y-107018666D01*
X100414667Y-106994475D01*
X100463048Y-106970285D01*
X100511429Y-106970285D01*
X100559810Y-106994475D01*
X100584000Y-107018666D01*
X100608190Y-107067047D01*
X100608190Y-107187999D01*
X100584000Y-107260571D01*
X100100190Y-107478285D02*
X100608190Y-107478285D01*
X100148571Y-108917619D02*
X100124381Y-108893429D01*
X100100190Y-108820857D01*
X100100190Y-108772476D01*
X100124381Y-108699905D01*
X100172762Y-108651524D01*
X100221143Y-108627333D01*
X100317905Y-108603143D01*
X100390476Y-108603143D01*
X100487238Y-108627333D01*
X100535619Y-108651524D01*
X100584000Y-108699905D01*
X100608190Y-108772476D01*
X100608190Y-108820857D01*
X100584000Y-108893429D01*
X100559810Y-108917619D01*
X100100190Y-109377238D02*
X100100190Y-109135333D01*
X100608190Y-109135333D01*
X100100190Y-109546571D02*
X100608190Y-109546571D01*
X100100190Y-109836857D02*
X100390476Y-109619143D01*
X100608190Y-109836857D02*
X100317905Y-109546571D01*
X100100190Y-111711619D02*
X100342095Y-111542286D01*
X100100190Y-111421333D02*
X100608190Y-111421333D01*
X100608190Y-111614857D01*
X100584000Y-111663238D01*
X100559810Y-111687429D01*
X100511429Y-111711619D01*
X100438857Y-111711619D01*
X100390476Y-111687429D01*
X100366286Y-111663238D01*
X100342095Y-111614857D01*
X100342095Y-111421333D01*
X100100190Y-111880952D02*
X100438857Y-112147048D01*
X100438857Y-111880952D02*
X100100190Y-112147048D01*
X100124381Y-118726857D02*
X100100190Y-118799428D01*
X100100190Y-118920381D01*
X100124381Y-118968762D01*
X100148571Y-118992952D01*
X100196952Y-119017143D01*
X100245333Y-119017143D01*
X100293714Y-118992952D01*
X100317905Y-118968762D01*
X100342095Y-118920381D01*
X100366286Y-118823619D01*
X100390476Y-118775238D01*
X100414667Y-118751047D01*
X100463048Y-118726857D01*
X100511429Y-118726857D01*
X100559810Y-118751047D01*
X100584000Y-118775238D01*
X100608190Y-118823619D01*
X100608190Y-118944571D01*
X100584000Y-119017143D01*
X100148571Y-119525143D02*
X100124381Y-119500953D01*
X100100190Y-119428381D01*
X100100190Y-119380000D01*
X100124381Y-119307429D01*
X100172762Y-119259048D01*
X100221143Y-119234857D01*
X100317905Y-119210667D01*
X100390476Y-119210667D01*
X100487238Y-119234857D01*
X100535619Y-119259048D01*
X100584000Y-119307429D01*
X100608190Y-119380000D01*
X100608190Y-119428381D01*
X100584000Y-119500953D01*
X100559810Y-119525143D01*
X100100190Y-119742857D02*
X100608190Y-119742857D01*
X100100190Y-120033143D02*
X100390476Y-119815429D01*
X100608190Y-120033143D02*
X100317905Y-119742857D01*
X100245333Y-121557143D02*
X100245333Y-121799048D01*
X100100190Y-121508762D02*
X100608190Y-121678095D01*
X100100190Y-121847429D01*
X100608190Y-122113524D02*
X100608190Y-122161905D01*
X100584000Y-122210286D01*
X100559810Y-122234477D01*
X100511429Y-122258667D01*
X100414667Y-122282858D01*
X100293714Y-122282858D01*
X100196952Y-122258667D01*
X100148571Y-122234477D01*
X100124381Y-122210286D01*
X100100190Y-122161905D01*
X100100190Y-122113524D01*
X100124381Y-122065143D01*
X100148571Y-122040953D01*
X100196952Y-122016762D01*
X100293714Y-121992572D01*
X100414667Y-121992572D01*
X100511429Y-122016762D01*
X100559810Y-122040953D01*
X100584000Y-122065143D01*
X100608190Y-122113524D01*
X100245333Y-124097143D02*
X100245333Y-124339048D01*
X100100190Y-124048762D02*
X100608190Y-124218095D01*
X100100190Y-124387429D01*
X100559810Y-124532572D02*
X100584000Y-124556762D01*
X100608190Y-124605143D01*
X100608190Y-124726096D01*
X100584000Y-124774477D01*
X100559810Y-124798667D01*
X100511429Y-124822858D01*
X100463048Y-124822858D01*
X100390476Y-124798667D01*
X100100190Y-124508381D01*
X100100190Y-124822858D01*
X100584000Y-126612953D02*
X100608190Y-126564572D01*
X100608190Y-126492000D01*
X100584000Y-126419429D01*
X100535619Y-126371048D01*
X100487238Y-126346857D01*
X100390476Y-126322667D01*
X100317905Y-126322667D01*
X100221143Y-126346857D01*
X100172762Y-126371048D01*
X100124381Y-126419429D01*
X100100190Y-126492000D01*
X100100190Y-126540381D01*
X100124381Y-126612953D01*
X100148571Y-126637143D01*
X100317905Y-126637143D01*
X100317905Y-126540381D01*
X100100190Y-126854857D02*
X100608190Y-126854857D01*
X100100190Y-127145143D01*
X100608190Y-127145143D01*
X100100190Y-127387047D02*
X100608190Y-127387047D01*
X100608190Y-127508000D01*
X100584000Y-127580571D01*
X100535619Y-127628952D01*
X100487238Y-127653143D01*
X100390476Y-127677333D01*
X100317905Y-127677333D01*
X100221143Y-127653143D01*
X100172762Y-127628952D01*
X100124381Y-127580571D01*
X100100190Y-127508000D01*
X100100190Y-127387047D01*
X107018667Y-124822857D02*
X107018667Y-124580952D01*
X107163810Y-124871238D02*
X106655810Y-124701905D01*
X107163810Y-124532571D01*
X106655810Y-124411619D02*
X106655810Y-124097142D01*
X106849333Y-124266476D01*
X106849333Y-124193904D01*
X106873524Y-124145523D01*
X106897714Y-124121333D01*
X106946095Y-124097142D01*
X107067048Y-124097142D01*
X107115429Y-124121333D01*
X107139619Y-124145523D01*
X107163810Y-124193904D01*
X107163810Y-124339047D01*
X107139619Y-124387428D01*
X107115429Y-124411619D01*
X107018667Y-122282857D02*
X107018667Y-122040952D01*
X107163810Y-122331238D02*
X106655810Y-122161905D01*
X107163810Y-121992571D01*
X107163810Y-121557142D02*
X107163810Y-121847428D01*
X107163810Y-121702285D02*
X106655810Y-121702285D01*
X106728381Y-121750666D01*
X106776762Y-121799047D01*
X106800952Y-121847428D01*
X107139619Y-119996857D02*
X107163810Y-119924286D01*
X107163810Y-119803333D01*
X107139619Y-119754952D01*
X107115429Y-119730762D01*
X107067048Y-119706571D01*
X107018667Y-119706571D01*
X106970286Y-119730762D01*
X106946095Y-119754952D01*
X106921905Y-119803333D01*
X106897714Y-119900095D01*
X106873524Y-119948476D01*
X106849333Y-119972667D01*
X106800952Y-119996857D01*
X106752571Y-119996857D01*
X106704190Y-119972667D01*
X106680000Y-119948476D01*
X106655810Y-119900095D01*
X106655810Y-119779143D01*
X106680000Y-119706571D01*
X107163810Y-119488857D02*
X106655810Y-119488857D01*
X106655810Y-119367904D01*
X106680000Y-119295333D01*
X106728381Y-119246952D01*
X106776762Y-119222761D01*
X106873524Y-119198571D01*
X106946095Y-119198571D01*
X107042857Y-119222761D01*
X107091238Y-119246952D01*
X107139619Y-119295333D01*
X107163810Y-119367904D01*
X107163810Y-119488857D01*
X107018667Y-119005047D02*
X107018667Y-118763142D01*
X107163810Y-119053428D02*
X106655810Y-118884095D01*
X107163810Y-118714761D01*
X106655810Y-117468953D02*
X106655810Y-117154476D01*
X106849333Y-117323810D01*
X106849333Y-117251238D01*
X106873524Y-117202857D01*
X106897714Y-117178667D01*
X106946095Y-117154476D01*
X107067048Y-117154476D01*
X107115429Y-117178667D01*
X107139619Y-117202857D01*
X107163810Y-117251238D01*
X107163810Y-117396381D01*
X107139619Y-117444762D01*
X107115429Y-117468953D01*
X106655810Y-117009333D02*
X107163810Y-116840000D01*
X106655810Y-116670666D01*
X106655810Y-116549714D02*
X106655810Y-116235237D01*
X106849333Y-116404571D01*
X106849333Y-116331999D01*
X106873524Y-116283618D01*
X106897714Y-116259428D01*
X106946095Y-116235237D01*
X107067048Y-116235237D01*
X107115429Y-116259428D01*
X107139619Y-116283618D01*
X107163810Y-116331999D01*
X107163810Y-116477142D01*
X107139619Y-116525523D01*
X107115429Y-116549714D01*
X106680000Y-114687047D02*
X106655810Y-114735428D01*
X106655810Y-114808000D01*
X106680000Y-114880571D01*
X106728381Y-114928952D01*
X106776762Y-114953143D01*
X106873524Y-114977333D01*
X106946095Y-114977333D01*
X107042857Y-114953143D01*
X107091238Y-114928952D01*
X107139619Y-114880571D01*
X107163810Y-114808000D01*
X107163810Y-114759619D01*
X107139619Y-114687047D01*
X107115429Y-114662857D01*
X106946095Y-114662857D01*
X106946095Y-114759619D01*
X107163810Y-114445143D02*
X106655810Y-114445143D01*
X107163810Y-114154857D01*
X106655810Y-114154857D01*
X107163810Y-113912953D02*
X106655810Y-113912953D01*
X106655810Y-113792000D01*
X106680000Y-113719429D01*
X106728381Y-113671048D01*
X106776762Y-113646857D01*
X106873524Y-113622667D01*
X106946095Y-113622667D01*
X107042857Y-113646857D01*
X107091238Y-113671048D01*
X107139619Y-113719429D01*
X107163810Y-113792000D01*
X107163810Y-113912953D01*
X106655810Y-112110762D02*
X106655810Y-111820476D01*
X107163810Y-111965619D02*
X106655810Y-111965619D01*
X107163810Y-111699524D02*
X106825143Y-111433428D01*
X106825143Y-111699524D02*
X107163810Y-111433428D01*
X107115429Y-109050667D02*
X107139619Y-109074857D01*
X107163810Y-109147429D01*
X107163810Y-109195810D01*
X107139619Y-109268381D01*
X107091238Y-109316762D01*
X107042857Y-109340953D01*
X106946095Y-109365143D01*
X106873524Y-109365143D01*
X106776762Y-109340953D01*
X106728381Y-109316762D01*
X106680000Y-109268381D01*
X106655810Y-109195810D01*
X106655810Y-109147429D01*
X106680000Y-109074857D01*
X106704190Y-109050667D01*
X107139619Y-108857143D02*
X107163810Y-108784572D01*
X107163810Y-108663619D01*
X107139619Y-108615238D01*
X107115429Y-108591048D01*
X107067048Y-108566857D01*
X107018667Y-108566857D01*
X106970286Y-108591048D01*
X106946095Y-108615238D01*
X106921905Y-108663619D01*
X106897714Y-108760381D01*
X106873524Y-108808762D01*
X106849333Y-108832953D01*
X106800952Y-108857143D01*
X106752571Y-108857143D01*
X106704190Y-108832953D01*
X106680000Y-108808762D01*
X106655810Y-108760381D01*
X106655810Y-108639429D01*
X106680000Y-108566857D01*
X107163810Y-107478286D02*
X106655810Y-107478286D01*
X107018667Y-107308952D01*
X106655810Y-107139619D01*
X107163810Y-107139619D01*
X107163810Y-106897715D02*
X106655810Y-106897715D01*
X107139619Y-106680000D02*
X107163810Y-106607429D01*
X107163810Y-106486476D01*
X107139619Y-106438095D01*
X107115429Y-106413905D01*
X107067048Y-106389714D01*
X107018667Y-106389714D01*
X106970286Y-106413905D01*
X106946095Y-106438095D01*
X106921905Y-106486476D01*
X106897714Y-106583238D01*
X106873524Y-106631619D01*
X106849333Y-106655810D01*
X106800952Y-106680000D01*
X106752571Y-106680000D01*
X106704190Y-106655810D01*
X106680000Y-106631619D01*
X106655810Y-106583238D01*
X106655810Y-106462286D01*
X106680000Y-106389714D01*
X106655810Y-106075238D02*
X106655810Y-105978476D01*
X106680000Y-105930095D01*
X106728381Y-105881714D01*
X106825143Y-105857523D01*
X106994476Y-105857523D01*
X107091238Y-105881714D01*
X107139619Y-105930095D01*
X107163810Y-105978476D01*
X107163810Y-106075238D01*
X107139619Y-106123619D01*
X107091238Y-106172000D01*
X106994476Y-106196190D01*
X106825143Y-106196190D01*
X106728381Y-106172000D01*
X106680000Y-106123619D01*
X106655810Y-106075238D01*
X110907286Y-129195285D02*
X110871000Y-129158999D01*
X110834714Y-129086428D01*
X110834714Y-128904999D01*
X110871000Y-128832428D01*
X110907286Y-128796142D01*
X110979857Y-128759857D01*
X111052429Y-128759857D01*
X111161286Y-128796142D01*
X111596714Y-129231571D01*
X111596714Y-128759857D01*
X111596714Y-128070428D02*
X111596714Y-128433285D01*
X110834714Y-128433285D01*
X111669286Y-127997857D02*
X111669286Y-127417286D01*
X111596714Y-126836715D02*
X111596714Y-127272143D01*
X111596714Y-127054429D02*
X110834714Y-127054429D01*
X110943571Y-127127000D01*
X111016143Y-127199572D01*
X111052429Y-127272143D01*
X108222143Y-118200715D02*
X108258429Y-118237001D01*
X108294714Y-118345858D01*
X108294714Y-118418429D01*
X108258429Y-118527286D01*
X108185857Y-118599858D01*
X108113286Y-118636143D01*
X107968143Y-118672429D01*
X107859286Y-118672429D01*
X107714143Y-118636143D01*
X107641571Y-118599858D01*
X107569000Y-118527286D01*
X107532714Y-118418429D01*
X107532714Y-118345858D01*
X107569000Y-118237001D01*
X107605286Y-118200715D01*
X107895571Y-117874143D02*
X107895571Y-117620143D01*
X108294714Y-117511286D02*
X108294714Y-117874143D01*
X107532714Y-117874143D01*
X107532714Y-117511286D01*
X108294714Y-116604143D02*
X107532714Y-116604143D01*
X107895571Y-116604143D02*
X107895571Y-116168715D01*
X108294714Y-116168715D02*
X107532714Y-116168715D01*
X108258429Y-115515572D02*
X108294714Y-115588143D01*
X108294714Y-115733286D01*
X108258429Y-115805857D01*
X108185857Y-115842143D01*
X107895571Y-115842143D01*
X107823000Y-115805857D01*
X107786714Y-115733286D01*
X107786714Y-115588143D01*
X107823000Y-115515572D01*
X107895571Y-115479286D01*
X107968143Y-115479286D01*
X108040714Y-115842143D01*
X108294714Y-114826143D02*
X107895571Y-114826143D01*
X107823000Y-114862429D01*
X107786714Y-114935000D01*
X107786714Y-115080143D01*
X107823000Y-115152714D01*
X108258429Y-114826143D02*
X108294714Y-114898714D01*
X108294714Y-115080143D01*
X108258429Y-115152714D01*
X108185857Y-115189000D01*
X108113286Y-115189000D01*
X108040714Y-115152714D01*
X108004429Y-115080143D01*
X108004429Y-114898714D01*
X107968143Y-114826143D01*
X108294714Y-114136714D02*
X107532714Y-114136714D01*
X108258429Y-114136714D02*
X108294714Y-114209285D01*
X108294714Y-114354428D01*
X108258429Y-114427000D01*
X108222143Y-114463285D01*
X108149571Y-114499571D01*
X107931857Y-114499571D01*
X107859286Y-114463285D01*
X107823000Y-114427000D01*
X107786714Y-114354428D01*
X107786714Y-114209285D01*
X107823000Y-114136714D01*
X108258429Y-113483571D02*
X108294714Y-113556142D01*
X108294714Y-113701285D01*
X108258429Y-113773856D01*
X108185857Y-113810142D01*
X107895571Y-113810142D01*
X107823000Y-113773856D01*
X107786714Y-113701285D01*
X107786714Y-113556142D01*
X107823000Y-113483571D01*
X107895571Y-113447285D01*
X107968143Y-113447285D01*
X108040714Y-113810142D01*
X108294714Y-113120713D02*
X107786714Y-113120713D01*
X107931857Y-113120713D02*
X107859286Y-113084428D01*
X107823000Y-113048142D01*
X107786714Y-112975571D01*
X107786714Y-112902999D01*
X104067428Y-97191286D02*
X103595714Y-97191286D01*
X103849714Y-96901000D01*
X103740856Y-96901000D01*
X103668285Y-96864714D01*
X103631999Y-96828429D01*
X103595714Y-96755857D01*
X103595714Y-96574429D01*
X103631999Y-96501857D01*
X103668285Y-96465571D01*
X103740856Y-96429286D01*
X103958571Y-96429286D01*
X104031142Y-96465571D01*
X104067428Y-96501857D01*
X103378000Y-97191286D02*
X103124000Y-96429286D01*
X102870000Y-97191286D01*
X102688571Y-97191286D02*
X102216857Y-97191286D01*
X102470857Y-96901000D01*
X102361999Y-96901000D01*
X102289428Y-96864714D01*
X102253142Y-96828429D01*
X102216857Y-96755857D01*
X102216857Y-96574429D01*
X102253142Y-96501857D01*
X102289428Y-96465571D01*
X102361999Y-96429286D01*
X102579714Y-96429286D01*
X102652285Y-96465571D01*
X102688571Y-96501857D01*
X108603142Y-97191286D02*
X108965999Y-97191286D01*
X109002285Y-96828429D01*
X108965999Y-96864714D01*
X108893428Y-96901000D01*
X108711999Y-96901000D01*
X108639428Y-96864714D01*
X108603142Y-96828429D01*
X108566857Y-96755857D01*
X108566857Y-96574429D01*
X108603142Y-96501857D01*
X108639428Y-96465571D01*
X108711999Y-96429286D01*
X108893428Y-96429286D01*
X108965999Y-96465571D01*
X109002285Y-96501857D01*
X108349143Y-97191286D02*
X108095143Y-96429286D01*
X107841143Y-97191286D01*
D12*
X106934000Y-97476000D02*
X101794000Y-97476000D01*
X101794000Y-97476000D02*
X101794000Y-100136000D01*
X101794000Y-100136000D02*
X106934000Y-100136000D01*
X106934000Y-100136000D02*
X106934000Y-97476000D01*
X108204000Y-97476000D02*
X109534000Y-97476000D01*
X109534000Y-97476000D02*
X109534000Y-98806000D01*
X111370000Y-103794000D02*
X111370000Y-104994000D01*
X109610000Y-104994000D02*
X109610000Y-103794000D01*
X107578000Y-104994000D02*
X107578000Y-103794000D01*
X109338000Y-103794000D02*
X109338000Y-104994000D01*
D13*
X100965000Y-128397000D02*
X100965000Y-118237000D01*
X100965000Y-118237000D02*
X103632000Y-118237000D01*
X103632000Y-118237000D02*
X103632000Y-112903000D01*
X103632000Y-112903000D02*
X100965000Y-112903000D01*
X100965000Y-112903000D02*
X100965000Y-105410000D01*
X103632000Y-128397000D02*
X100965000Y-128397000D01*
X106299000Y-105410000D02*
X106299000Y-125603000D01*
X106299000Y-125603000D02*
X103632000Y-125603000D01*
X103632000Y-125603000D02*
X103632000Y-128397000D01*
X106292000Y-105410000D02*
X103632000Y-105410000D01*
X103632000Y-105410000D02*
X103632000Y-102743000D01*
D12*
X100972000Y-104140000D02*
X100972000Y-102750000D01*
X100972000Y-102750000D02*
X102362000Y-102750000D01*
D11*
X110834714Y-101473000D02*
X110471857Y-101727000D01*
X110834714Y-101908428D02*
X110072714Y-101908428D01*
X110072714Y-101618143D01*
X110109000Y-101545571D01*
X110145286Y-101509286D01*
X110217857Y-101473000D01*
X110326714Y-101473000D01*
X110399286Y-101509286D01*
X110435571Y-101545571D01*
X110471857Y-101618143D01*
X110471857Y-101908428D01*
X110834714Y-100747286D02*
X110834714Y-101182714D01*
X110834714Y-100965000D02*
X110072714Y-100965000D01*
X110181571Y-101037571D01*
X110254143Y-101110143D01*
X110290429Y-101182714D01*
X109056714Y-101473000D02*
X108693857Y-101727000D01*
X109056714Y-101908428D02*
X108294714Y-101908428D01*
X108294714Y-101618143D01*
X108331000Y-101545571D01*
X108367286Y-101509286D01*
X108439857Y-101473000D01*
X108548714Y-101473000D01*
X108621286Y-101509286D01*
X108657571Y-101545571D01*
X108693857Y-101618143D01*
X108693857Y-101908428D01*
X108367286Y-101182714D02*
X108331000Y-101146428D01*
X108294714Y-101073857D01*
X108294714Y-100892428D01*
X108331000Y-100819857D01*
X108367286Y-100783571D01*
X108439857Y-100747286D01*
X108512429Y-100747286D01*
X108621286Y-100783571D01*
X109056714Y-101219000D01*
X109056714Y-100747286D01*
D13*
X104394095Y-104592381D02*
X104394095Y-103592381D01*
X104394095Y-104068571D02*
X104965524Y-104068571D01*
X104965524Y-104592381D02*
X104965524Y-103592381D01*
X105965524Y-104592381D02*
X105394095Y-104592381D01*
X105679809Y-104592381D02*
X105679809Y-103592381D01*
X105584571Y-103735238D01*
X105489333Y-103830476D01*
X105394095Y-103878095D01*
M02*
