G04 #@! TF.FileFunction,Copper,L1,Top,Signal*
%FSLAX46Y46*%
G04 Gerber Fmt 4.6, Leading zero omitted, Abs format (unit mm)*
G04 Created by KiCad (PCBNEW 4.0.0-rc1-stable) date 30/03/2017 16:27:04*
%MOMM*%
G01*
G04 APERTURE LIST*
%ADD10C,0.076200*%
%ADD11R,1.700000X1.700000*%
%ADD12O,1.700000X1.700000*%
%ADD13R,1.300000X1.500000*%
%ADD14C,1.701800*%
%ADD15C,0.685800*%
%ADD16C,0.609600*%
%ADD17C,0.254000*%
G04 APERTURE END LIST*
D10*
D11*
X108204000Y-98806000D03*
D12*
X105664000Y-98806000D03*
X103124000Y-98806000D03*
D13*
X110490000Y-105744000D03*
X110490000Y-103044000D03*
X108458000Y-103044000D03*
X108458000Y-105744000D03*
D14*
X113030000Y-100330000D03*
X113030000Y-102870000D03*
X113030000Y-105410000D03*
X113030000Y-107950000D03*
X113030000Y-110490000D03*
X113030000Y-113030000D03*
X113030000Y-115570000D03*
X113030000Y-118110000D03*
X113030000Y-120650000D03*
X113030000Y-123190000D03*
X113030000Y-125730000D03*
X113030000Y-128270000D03*
X113030000Y-130810000D03*
X97790000Y-130810000D03*
X97790000Y-128270000D03*
X97790000Y-125730000D03*
X97790000Y-123190000D03*
X97790000Y-120650000D03*
X97790000Y-118110000D03*
X97790000Y-115570000D03*
X97790000Y-113030000D03*
X97790000Y-110490000D03*
X97790000Y-107950000D03*
X97790000Y-105410000D03*
X97790000Y-102870000D03*
X97790000Y-100330000D03*
X97790000Y-97790000D03*
X113030000Y-97790000D03*
X110490000Y-130810000D03*
X107950000Y-130810000D03*
X105410000Y-130810000D03*
X102870000Y-130810000D03*
X100330000Y-130810000D03*
D11*
X102362000Y-104140000D03*
D12*
X102362000Y-106680000D03*
X104902000Y-106680000D03*
X102362000Y-109220000D03*
X104902000Y-109220000D03*
X102362000Y-111760000D03*
X104902000Y-111760000D03*
X104902000Y-114300000D03*
X104902000Y-116840000D03*
X102362000Y-119380000D03*
X104902000Y-119380000D03*
X102362000Y-121920000D03*
X104902000Y-121920000D03*
X102362000Y-124460000D03*
X104902000Y-124460000D03*
X102362000Y-127000000D03*
D15*
X108458000Y-107696000D03*
D16*
X97790000Y-97790000D02*
X99314000Y-96266000D01*
X108204000Y-97282000D02*
X108204000Y-98806000D01*
X107188000Y-96266000D02*
X108204000Y-97282000D01*
X99314000Y-96266000D02*
X107188000Y-96266000D01*
X102362000Y-104140000D02*
X105664000Y-100838000D01*
X105664000Y-100838000D02*
X105664000Y-98806000D01*
X101854000Y-98806000D02*
X103124000Y-98806000D01*
X97790000Y-102870000D02*
X101854000Y-98806000D01*
D17*
X110490000Y-105744000D02*
X110490000Y-104902000D01*
X100838000Y-110236000D02*
X102362000Y-111760000D01*
X100838000Y-106426000D02*
X100838000Y-110236000D01*
X101854000Y-105410000D02*
X100838000Y-106426000D01*
X103632000Y-105410000D02*
X101854000Y-105410000D01*
X104648000Y-104394000D02*
X103632000Y-105410000D01*
X109982000Y-104394000D02*
X104648000Y-104394000D01*
X110490000Y-104902000D02*
X109982000Y-104394000D01*
X113030000Y-102870000D02*
X110664000Y-102870000D01*
X110664000Y-102870000D02*
X110490000Y-103044000D01*
X108458000Y-102108000D02*
X108458000Y-103044000D01*
X110236000Y-100330000D02*
X108458000Y-102108000D01*
X113030000Y-100330000D02*
X110236000Y-100330000D01*
X108458000Y-105744000D02*
X108458000Y-107696000D01*
X105664000Y-109982000D02*
X104902000Y-109220000D01*
X109982000Y-109982000D02*
X105664000Y-109982000D01*
X111506000Y-111506000D02*
X109982000Y-109982000D01*
X111506000Y-125222000D02*
X111506000Y-111506000D01*
X105410000Y-109728000D02*
X104902000Y-109220000D01*
X113030000Y-125730000D02*
X112014000Y-125730000D01*
X112014000Y-125730000D02*
X111506000Y-125222000D01*
X103632000Y-107950000D02*
X102362000Y-106680000D01*
X103632000Y-109982000D02*
X103632000Y-107950000D01*
X104140000Y-110490000D02*
X103632000Y-109982000D01*
X109728000Y-110490000D02*
X104140000Y-110490000D01*
X113030000Y-128270000D02*
X110998000Y-126238000D01*
X110998000Y-126238000D02*
X110998000Y-111760000D01*
X110998000Y-111760000D02*
X109728000Y-110490000D01*
X104902000Y-106680000D02*
X106172000Y-106680000D01*
X106172000Y-106680000D02*
X108712000Y-109220000D01*
X108712000Y-109220000D02*
X113792000Y-109220000D01*
X113792000Y-109220000D02*
X114554000Y-109982000D01*
X114554000Y-129286000D02*
X113030000Y-130810000D01*
X114554000Y-109982000D02*
X114554000Y-129286000D01*
X102362000Y-109220000D02*
X102362000Y-109728000D01*
X97790000Y-130810000D02*
X99314000Y-129286000D01*
X99314000Y-129286000D02*
X109220000Y-129286000D01*
X109220000Y-129286000D02*
X110490000Y-128016000D01*
X110490000Y-128016000D02*
X110490000Y-112014000D01*
X110490000Y-112014000D02*
X109474000Y-110998000D01*
X109474000Y-110998000D02*
X107696000Y-110998000D01*
X107696000Y-110998000D02*
X105664000Y-113030000D01*
X105664000Y-113030000D02*
X104394000Y-113030000D01*
X104394000Y-113030000D02*
X103632000Y-112268000D01*
X103632000Y-110744000D02*
X102362000Y-109474000D01*
X103632000Y-112268000D02*
X103632000Y-110744000D01*
X97790000Y-123190000D02*
X96520000Y-124460000D01*
X99822000Y-127000000D02*
X102362000Y-124460000D01*
X97028000Y-127000000D02*
X99822000Y-127000000D01*
X96520000Y-126492000D02*
X97028000Y-127000000D01*
X96520000Y-124460000D02*
X96520000Y-126492000D01*
X103632000Y-123190000D02*
X104902000Y-124460000D01*
X100330000Y-123190000D02*
X103632000Y-123190000D01*
X97790000Y-120650000D02*
X100330000Y-123190000D01*
X97790000Y-118110000D02*
X103632000Y-118110000D01*
X103632000Y-118110000D02*
X104902000Y-119380000D01*
X97790000Y-118110000D02*
X97536000Y-118110000D01*
M02*
