M48
;DRILL file {KiCad 4.0.0-rc1-stable} date 23/04/2017 15:22:20
;FORMAT={2:4/ absolute / inch / suppress leading zeros}
FMAT,2
INCH,TZ
T1C0.013
T2C0.031
T3C0.039
%
G90
G05
M72
T1
X64100Y-45125
X64125Y-49100
X64180Y-49980
X65375Y-44200
X65375Y-46800
X65450Y-45525
X65800Y-47775
X67440Y-43180
X67625Y-48500
X67675Y-50775
X69820Y-51460
X70140Y-45120
X70140Y-48880
X70160Y-43860
X70160Y-46380
X70160Y-50120
X70160Y-51360
X70175Y-47600
T2
X63809Y-51360
X64991Y-51360
T3
X61300Y-43200
X61300Y-44200
X61300Y-45200
X61300Y-46200
X61300Y-49200
X61300Y-50200
X61300Y-51200
X61300Y-52200
X62300Y-44200
X62300Y-45200
X62300Y-46200
X62300Y-47200
X62300Y-48200
X62300Y-49200
X62300Y-50200
X62300Y-51200
T0
M30
