G04 #@! TF.FileFunction,Soldermask,Bot*
%FSLAX46Y46*%
G04 Gerber Fmt 4.6, Leading zero omitted, Abs format (unit mm)*
G04 Created by KiCad (PCBNEW 4.0.0-rc1-stable) date 23/04/2017 15:22:08*
%MOMM*%
G01*
G04 APERTURE LIST*
%ADD10C,0.076200*%
%ADD11R,1.250000X1.000000*%
%ADD12R,1.000000X1.250000*%
%ADD13R,1.700000X1.700000*%
%ADD14O,1.700000X1.700000*%
%ADD15R,0.700000X1.300000*%
%ADD16C,1.500000*%
G04 APERTURE END LIST*
D10*
D11*
X168148000Y-123460000D03*
X168148000Y-125460000D03*
D12*
X166132000Y-114173000D03*
X168132000Y-114173000D03*
X168132000Y-110744000D03*
X166132000Y-110744000D03*
D13*
X155702000Y-109728000D03*
D14*
X155702000Y-112268000D03*
X158242000Y-112268000D03*
X155702000Y-114808000D03*
X158242000Y-114808000D03*
X155702000Y-117348000D03*
X158242000Y-117348000D03*
X158242000Y-119888000D03*
X158242000Y-122428000D03*
X155702000Y-124968000D03*
X158242000Y-124968000D03*
X155702000Y-127508000D03*
X158242000Y-127508000D03*
X155702000Y-130048000D03*
X158242000Y-130048000D03*
X155702000Y-132588000D03*
D15*
X168336000Y-127508000D03*
X166436000Y-127508000D03*
X166050000Y-121412000D03*
X164150000Y-121412000D03*
X168653500Y-131826000D03*
X166753500Y-131826000D03*
X164424400Y-128371600D03*
X162524400Y-128371600D03*
X176088000Y-109982000D03*
X177988000Y-109982000D03*
X176088000Y-113157000D03*
X177988000Y-113157000D03*
X176088000Y-116332000D03*
X177988000Y-116332000D03*
X176088000Y-119507000D03*
X177988000Y-119507000D03*
X176088000Y-122682000D03*
X177988000Y-122682000D03*
X176088000Y-125857000D03*
X177988000Y-125857000D03*
X176088000Y-129032000D03*
X177988000Y-129032000D03*
X176088000Y-132207000D03*
X177988000Y-132207000D03*
D16*
X162076000Y-130454400D03*
X165076000Y-130454400D03*
M02*
